<svg xmlns="http://www.w3.org/2000/svg" width="1349" height="840" viewBox="0 0 1349 840">
  <defs>
    <style>
      .cls-1 {
        fill: #bf6663;
      }
    </style>
  </defs>
  <path id="avatarblurPNG" class="cls-1" d="M-11814.469-314a28,28,0,0,1-28-28,28,28,0,0,1,28-28h-2.052a27.78,27.78,0,0,0,10.866-2.239,28.068,28.068,0,0,0,8.888-6.029,28.148,28.148,0,0,0,6.008-8.915,27.986,27.986,0,0,0,2.228-10.9v-.1a27.772,27.772,0,0,0-2.275-11.067,27.653,27.653,0,0,0-6.19-8.957,27.58,27.58,0,0,0-19.186-7.792h1108.3a27.836,27.836,0,0,0-10.711,2.239,28.113,28.113,0,0,0-8.888,6.029,28.16,28.16,0,0,0-6.008,8.918,27.977,27.977,0,0,0-2.228,10.9v.1a27.772,27.772,0,0,0,2.275,11.067,27.628,27.628,0,0,0,6.19,8.954,27.554,27.554,0,0,0,19.186,7.792h84.128a28,28,0,0,1,28,28,28,28,0,0,1-28,28Zm-2.065-56v-56l.01,56Zm1108.814-6.221-.006-49.779h.009v49.779ZM-11900-426a28,28,0,0,1-28-28,28,28,0,0,1,28-28h80.394v-56l.01,56a27.77,27.77,0,0,0,10.866-2.239,28,28,0,0,0,8.888-6.029,28.115,28.115,0,0,0,6.008-8.915,27.986,27.986,0,0,0,2.228-10.9l0-.1a27.822,27.822,0,0,0-2.275-11.067,27.707,27.707,0,0,0-6.193-8.957,27.578,27.578,0,0,0-19.183-7.792h1111.3a27.858,27.858,0,0,0-10.711,2.239,28.118,28.118,0,0,0-8.888,6.029,28.188,28.188,0,0,0-6.006,8.918,27.906,27.906,0,0,0-2.227,10.9l0,.1a27.821,27.821,0,0,0,2.274,11.067,27.734,27.734,0,0,0,6.191,8.954A27.608,27.608,0,0,0-10708.4-482h-1.068a28,28,0,0,1,28,28,28,28,0,0,1-28,28Zm1192.207-61.092L-10707.8-538h.009v50.908ZM-11861.892-538a28,28,0,0,1-28-28,28,28,0,0,1,28-28h12.24v-56h-12.24a28,28,0,0,1-28-28,28,28,0,0,1,28-28h70.231v-55.111l.009,55.111h0a27.78,27.78,0,0,0,10.866-2.239,28.068,28.068,0,0,0,8.888-6.029,28.117,28.117,0,0,0,6.009-8.915,28.055,28.055,0,0,0,2.227-10.9v-.1a27.771,27.771,0,0,0-2.275-11.067,27.683,27.683,0,0,0-6.19-8.957,27.583,27.583,0,0,0-19.186-7.792h1110.3a27.835,27.835,0,0,0-10.711,2.239,28.1,28.1,0,0,0-8.888,6.029,28.161,28.161,0,0,0-6.008,8.918,27.96,27.96,0,0,0-2.228,10.9v.1a27.721,27.721,0,0,0,2.275,11.067,27.641,27.641,0,0,0,6.19,8.954,27.553,27.553,0,0,0,19.186,7.792h9.831a28,28,0,0,1,28,28,28,28,0,0,1-28,28h-60.473v50.4h0l-.009-50.4h-.156a27.832,27.832,0,0,0-10.71,2.239,28.089,28.089,0,0,0-8.886,6.029,28.218,28.218,0,0,0-6.011,8.918,28.012,28.012,0,0,0-2.227,10.9v.1a27.771,27.771,0,0,0,2.274,11.067,27.688,27.688,0,0,0,6.19,8.954,27.564,27.564,0,0,0,19.186,7.792h60.823a28,28,0,0,1,28,28,28,28,0,0,1-28,28Zm12.252-56a27.786,27.786,0,0,0,10.867-2.239,28.079,28.079,0,0,0,8.888-6.029,28.113,28.113,0,0,0,6.008-8.915,28,28,0,0,0,2.228-10.9v-.1a27.771,27.771,0,0,0-2.275-11.067,27.653,27.653,0,0,0-6.19-8.957A27.58,27.58,0,0,0-11849.3-650h-.351Zm1168.793-118.221-.006-49.779h.009v49.779ZM-11873.749-762a28,28,0,0,1-28-28,28,28,0,0,1,28-28h12.8v-56l.01,56a27.77,27.77,0,0,0,10.866-2.239,28.068,28.068,0,0,0,8.888-6.029,28.114,28.114,0,0,0,6.008-8.915,27.985,27.985,0,0,0,2.228-10.9v-.1a27.771,27.771,0,0,0-2.275-11.067,27.685,27.685,0,0,0-6.19-8.957A27.578,27.578,0,0,0-11860.6-874h1116.3a27.861,27.861,0,0,0-10.714,2.239,28.073,28.073,0,0,0-8.885,6.029,28.112,28.112,0,0,0-6.008,8.918,28.016,28.016,0,0,0-2.23,10.9v.1a27.8,27.8,0,0,0,2.275,11.067,27.64,27.64,0,0,0,6.19,8.954A27.564,27.564,0,0,0-10744.48-818h61.266a28,28,0,0,1,28,28,28,28,0,0,1-28,28Zm1129.615-62.322-.006-49.678h.01v49.678ZM-11861.892-874a28,28,0,0,1-28-28,28,28,0,0,1,28-28h62.609v-56l.012,56a27.785,27.785,0,0,0,10.867-2.239,28.079,28.079,0,0,0,8.888-6.029,28.115,28.115,0,0,0,6.008-8.915,28,28,0,0,0,2.228-10.9v-.1a27.772,27.772,0,0,0-2.275-11.067,27.685,27.685,0,0,0-6.19-8.957,27.58,27.58,0,0,0-19.186-7.792h1117.3a27.831,27.831,0,0,0-10.711,2.239,28.133,28.133,0,0,0-8.889,6.029,28.258,28.258,0,0,0-6.008,8.918,28.012,28.012,0,0,0-2.227,10.9v.1a27.771,27.771,0,0,0,2.274,11.067,27.643,27.643,0,0,0,6.191,8.954,27.561,27.561,0,0,0,19.186,7.792h10.453a28,28,0,0,1,28,28,28,28,0,0,1-28,28Zm1180.425-61.6-.009-50.4h.012v50.4ZM-11797.534-986a28,28,0,0,1-28-28,28,28,0,0,1,28-28h5.886a27.781,27.781,0,0,0,10.866-2.239,28.067,28.067,0,0,0,8.888-6.029,28.116,28.116,0,0,0,6.009-8.915,28.055,28.055,0,0,0,2.227-10.9v-.1a27.771,27.771,0,0,0-2.275-11.067,27.715,27.715,0,0,0-6.19-8.957,27.584,27.584,0,0,0-19.186-7.792h-.35l.009,56h-.009v-56h-70.231a28,28,0,0,1-28-28,28,28,0,0,1,28-28h1190.531a28,28,0,0,1,28,28,28,28,0,0,1-28,28h-2.484v50.4l-.01-50.4h-.155a27.835,27.835,0,0,0-10.711,2.239,28.118,28.118,0,0,0-8.888,6.029,28.161,28.161,0,0,0-6.008,8.918,27.96,27.96,0,0,0-2.228,10.9v.1a27.772,27.772,0,0,0,2.275,11.067,27.641,27.641,0,0,0,6.19,8.954,27.554,27.554,0,0,0,19.186,7.792H-10607a28,28,0,0,1,28,28,28,28,0,0,1-28,28Z" transform="translate(11928.001 1154.001)"/>
</svg>
