<svg xmlns="http://www.w3.org/2000/svg" width="1311.748" height="728.002" viewBox="0 0 1311.748 728.002">
  <path id="benzineHighscore" d="M-11869-426a28,28,0,0,1-28-28,28,28,0,0,1,28-28h49.395v-56l.009,56h0a27.806,27.806,0,0,0,10.864-2.237,28.1,28.1,0,0,0,8.89-6.029,28.13,28.13,0,0,0,6.006-8.917,27.993,27.993,0,0,0,2.229-10.9v-.1a27.771,27.771,0,0,0-2.273-11.067,27.757,27.757,0,0,0-6.191-8.956,27.567,27.567,0,0,0-19.185-7.791h1117.3a27.8,27.8,0,0,0-10.711,2.237,28.11,28.11,0,0,0-8.887,6.029,28.172,28.172,0,0,0-6.009,8.917,27.958,27.958,0,0,0-2.229,10.9v.1a27.767,27.767,0,0,0,2.276,11.067,27.656,27.656,0,0,0,6.188,8.956A27.576,27.576,0,0,0-10702.14-482h23.674a28,28,0,0,1,28,28,28,28,0,0,1-28,28Zm1167.2-112h.009v50.4Zm-1160.093,0a28,28,0,0,1-28-28,28,28,0,0,1,28-28h12.253a27.755,27.755,0,0,0,10.864-2.237,28.094,28.094,0,0,0,8.89-6.029,28.184,28.184,0,0,0,6.008-8.917,28,28,0,0,0,2.226-10.9l0-.1a27.8,27.8,0,0,0-2.276-11.067,27.675,27.675,0,0,0-6.19-8.956A27.557,27.557,0,0,0-11849.3-650h-.351l.009,56h-.009v-56h-12.241a28,28,0,0,1-28-28,28,28,0,0,1,28-28h7.23v-56l.012,56a27.81,27.81,0,0,0,10.866-2.24,28.076,28.076,0,0,0,8.888-6.029,28.054,28.054,0,0,0,6.008-8.917,27.943,27.943,0,0,0,2.229-10.9v-.1a27.745,27.745,0,0,0-2.276-11.067,27.632,27.632,0,0,0-6.191-8.956,27.579,27.579,0,0,0-19.184-7.794h1117.3a27.778,27.778,0,0,0-10.711,2.24,28.082,28.082,0,0,0-8.887,6.029,28.169,28.169,0,0,0-6.009,8.917,28.066,28.066,0,0,0-2.228,10.9v.1a27.746,27.746,0,0,0,2.276,11.067,27.63,27.63,0,0,0,6.19,8.956,27.583,27.583,0,0,0,19.185,7.794h65.835a28,28,0,0,1,28,28,28,28,0,0,1-28,28h-60.477v50.4l-.009-50.4h-.156a27.762,27.762,0,0,0-10.71,2.24,28.027,28.027,0,0,0-8.888,6.029,28.123,28.123,0,0,0-6.008,8.914,27.958,27.958,0,0,0-2.229,10.9v.1a27.756,27.756,0,0,0,2.276,11.067,27.681,27.681,0,0,0,6.188,8.956,27.579,27.579,0,0,0,19.188,7.791h60.824a28,28,0,0,1,28,28,28,28,0,0,1-28,28Zm1125.046-173.6-.009-50.4h.012v50.4Zm-1169.9-50.4a28,28,0,0,1-28-28,28,28,0,0,1,28-28h44.8v-56l.01,56a27.757,27.757,0,0,0,10.866-2.24,28.011,28.011,0,0,0,8.887-6.029,28.056,28.056,0,0,0,6.009-8.917,27.943,27.943,0,0,0,2.229-10.9v-.1a27.746,27.746,0,0,0-2.276-11.067,27.648,27.648,0,0,0-6.191-8.956A27.58,27.58,0,0,0-11861.6-874h1117.3a27.833,27.833,0,0,0-10.711,2.24,28.094,28.094,0,0,0-8.887,6.029,28.187,28.187,0,0,0-6.009,8.917,28.011,28.011,0,0,0-2.226,10.9v.1a27.743,27.743,0,0,0,2.273,11.067,27.647,27.647,0,0,0,6.191,8.956A27.568,27.568,0,0,0-10744.48-818h28.266a28,28,0,0,1,28,28,28,28,0,0,1-28,28Zm1162.615-61.6-.007-50.4h.01v50.4ZM-11861.892-874a28,28,0,0,1-28-28,28,28,0,0,1,28-28h62.609v-56l.012,56a27.758,27.758,0,0,0,10.866-2.24,27.962,27.962,0,0,0,8.887-6.029,28.077,28.077,0,0,0,6.009-8.914,27.969,27.969,0,0,0,2.229-10.9v-.1a27.745,27.745,0,0,0-2.276-11.067,27.632,27.632,0,0,0-6.191-8.956A27.564,27.564,0,0,0-11798.93-986h1117.3a27.775,27.775,0,0,0-10.711,2.237,28.082,28.082,0,0,0-8.887,6.029,28.186,28.186,0,0,0-6.009,8.917,28.011,28.011,0,0,0-2.226,10.9v.1a27.781,27.781,0,0,0,2.273,11.067,27.667,27.667,0,0,0,6.191,8.953,27.557,27.557,0,0,0,19.185,7.794h10.456a28,28,0,0,1,28,28,28,28,0,0,1-28,28Zm1180.425-61.6-.009-50.4h.012v50.4ZM-11841.533-986a28,28,0,0,1-28-28,28,28,0,0,1,28-28h49.883a27.758,27.758,0,0,0,10.866-2.24,28.047,28.047,0,0,0,8.89-6.026,28.129,28.129,0,0,0,6.006-8.917,27.976,27.976,0,0,0,2.229-10.9v-.1a27.794,27.794,0,0,0-2.273-11.067,27.691,27.691,0,0,0-6.191-8.956,27.565,27.565,0,0,0-19.185-7.791h-.351l.01,56h-.01v-56h-70.231a28,28,0,0,1-28-28,28,28,0,0,1,28-28h1190.533a28,28,0,0,1,28,28,28,28,0,0,1-28,28h-2.485v50.4h0l-.006-50.4h-.155a27.811,27.811,0,0,0-10.711,2.237,28.061,28.061,0,0,0-8.887,6.029,28.138,28.138,0,0,0-6.009,8.917,27.955,27.955,0,0,0-2.229,10.9v.1a27.767,27.767,0,0,0,2.276,11.067,27.7,27.7,0,0,0,6.188,8.956,27.576,27.576,0,0,0,19.185,7.791H-10651a28,28,0,0,1,28,28,28,28,0,0,1-28,28Z" transform="translate(11934.748 1154.001)" fill="#bf6663"/>
</svg>
