<svg xmlns="http://www.w3.org/2000/svg" width="1278.747" height="727.999" viewBox="0 0 1278.747 727.999">
  <path id="benzineHighscore" d="M-11869-426a28,28,0,0,1-28-28,28,28,0,0,1,28-28h49.4v-56l.009,56a27.773,27.773,0,0,0,10.867-2.24,28.1,28.1,0,0,0,8.889-6.028,28.169,28.169,0,0,0,6.007-8.916,28,28,0,0,0,2.229-10.9v-.1a27.762,27.762,0,0,0-2.276-11.067,27.615,27.615,0,0,0-6.189-8.955,27.563,27.563,0,0,0-19.185-7.793h1117.3a27.844,27.844,0,0,0-10.712,2.237,28.113,28.113,0,0,0-8.886,6.031,28.226,28.226,0,0,0-6.01,8.916,28.045,28.045,0,0,0-2.226,10.9v.1a27.76,27.76,0,0,0,2.273,11.067,27.676,27.676,0,0,0,6.189,8.955,27.575,27.575,0,0,0,19.188,7.793h23.672a28,28,0,0,1,28,28,28,28,0,0,1-28,28Zm1167.209-61.6-.009-50.4h.012v50.4Zm-1160.1-50.4a28,28,0,0,1-28-28,28,28,0,0,1,28-28h1190.533a28,28,0,0,1,28,28,28,28,0,0,1-28,28Zm12.256-56a27.713,27.713,0,0,0,10.863-2.237,28.061,28.061,0,0,0,8.889-6.031,28.038,28.038,0,0,0,6.007-8.916,27.963,27.963,0,0,0,2.229-10.9v-.1a27.774,27.774,0,0,0-2.273-11.07,27.7,27.7,0,0,0-6.191-8.955A27.578,27.578,0,0,0-11849.3-650h-.35l.009,56h-.009v-56h-12.243a28,28,0,0,1-28-28,28,28,0,0,1,28-28h70.232v-56l.012,56a27.779,27.779,0,0,0,10.866-2.24,28.069,28.069,0,0,0,8.887-6.028,28.158,28.158,0,0,0,6.009-8.916,27.977,27.977,0,0,0,2.229-10.9v-.1a27.779,27.779,0,0,0-2.275-11.067,27.639,27.639,0,0,0-6.192-8.955A27.561,27.561,0,0,0-11791.31-762h1117.3a27.84,27.84,0,0,0-10.711,2.237,28.112,28.112,0,0,0-8.886,6.031,28.21,28.21,0,0,0-6.01,8.916,28.031,28.031,0,0,0-2.229,10.9v.1a27.762,27.762,0,0,0,2.276,11.067,27.657,27.657,0,0,0,6.188,8.955,27.575,27.575,0,0,0,19.186,7.793h2.834a28,28,0,0,1,28,28,28,28,0,0,1-28,28h-60.474v50.4h0l-.006-50.4h-.158a27.8,27.8,0,0,0-10.711,2.24,28.093,28.093,0,0,0-8.887,6.028,28.149,28.149,0,0,0-6.007,8.919,27.969,27.969,0,0,0-2.228,10.9v.1a27.753,27.753,0,0,0,2.275,11.07,27.694,27.694,0,0,0,6.189,8.955,27.56,27.56,0,0,0,19.185,7.79v0Zm0,0v0Zm1175.787-168h.01v50.4Zm-1199.895,0a28,28,0,0,1-28-28,28,28,0,0,1,28-28h11.811v0h1117.458l-1117.455,0a27.73,27.73,0,0,0,10.866-2.237,28.05,28.05,0,0,0,8.887-6.031,28.054,28.054,0,0,0,6.007-8.916,27.962,27.962,0,0,0,2.228-10.9v-.1a27.79,27.79,0,0,0-2.272-11.07,27.715,27.715,0,0,0-6.192-8.955A27.576,27.576,0,0,0-11861.6-874h1117.3a27.778,27.778,0,0,0-10.709,2.24,28.1,28.1,0,0,0-8.889,6.028,28.18,28.18,0,0,0-6.007,8.919,27.952,27.952,0,0,0-2.229,10.9v.1a27.737,27.737,0,0,0,2.276,11.07,27.691,27.691,0,0,0,6.188,8.955,27.564,27.564,0,0,0,19.186,7.79v0h61.266a28,28,0,0,1,28,28,28,28,0,0,1-28,28Zm11.8-56v-56l.009,56Zm1117.813-5.6-.006-50.4h.009v50.4Zm-1117.76-50.4a28,28,0,0,1-28-28,28,28,0,0,1,28-28h62.612v-56l.009,56h0a27.794,27.794,0,0,0,10.867-2.24,28.089,28.089,0,0,0,8.886-6.028,28.121,28.121,0,0,0,6.007-8.916,28,28,0,0,0,2.229-10.9v-.1a27.76,27.76,0,0,0-2.273-11.067,27.684,27.684,0,0,0-6.192-8.955,27.563,27.563,0,0,0-19.185-7.793h1117.3a27.83,27.83,0,0,0-10.709,2.237,28.159,28.159,0,0,0-8.889,6.031,28.169,28.169,0,0,0-6.007,8.916,28,28,0,0,0-2.229,10.9v.1a27.712,27.712,0,0,0,2.276,11.067,27.63,27.63,0,0,0,6.189,8.955,27.563,27.563,0,0,0,19.185,7.793h10.454a28,28,0,0,1,28,28,28,28,0,0,1-28,28Zm1180.426-61.6-.006-50.4h.009v50.4ZM-11841.534-986a28,28,0,0,1-28-28,28,28,0,0,1,28-28H-10651a28,28,0,0,1,28,28,28,28,0,0,1-28,28Zm49.885-56a27.721,27.721,0,0,0,10.866-2.237,28.027,28.027,0,0,0,8.887-6.031,28.091,28.091,0,0,0,6.009-8.916,27.974,27.974,0,0,0,2.229-10.9v-.1a27.792,27.792,0,0,0-2.275-11.07,27.669,27.669,0,0,0-6.192-8.955,27.575,27.575,0,0,0-19.183-7.793h-.352l.012,56v0l0,0h-.009v-56h-70.232a28,28,0,0,1-28-28,28,28,0,0,1,28-28h1190.533a28,28,0,0,1,28,28,28,28,0,0,1-28,28h-2.484v50.4l-.01-50.4h-.155a27.786,27.786,0,0,0-10.711,2.24,28.054,28.054,0,0,0-8.886,6.028,28.188,28.188,0,0,0-6.01,8.919,28,28,0,0,0-2.229,10.9v.1a27.787,27.787,0,0,0,2.276,11.07,27.722,27.722,0,0,0,6.188,8.955,27.573,27.573,0,0,0,19.186,7.79v0Z" transform="translate(11901.748 1154)" fill="#bf6663"/>
</svg>
