<svg xmlns="http://www.w3.org/2000/svg" xmlns:xlink="http://www.w3.org/1999/xlink" width="941.1" height="918.692" viewBox="0 0 941.1 918.692">
  <defs>
    <linearGradient id="linear-gradient" x1="0.5" x2="0.5" y2="1" gradientUnits="objectBoundingBox">
      <stop offset="0" stop-color="#f2f2f2"/>
      <stop offset="1" stop-color="#c7c7c7" stop-opacity="0.161"/>
    </linearGradient>
  </defs>
  <g id="indexRocket" transform="translate(3.516)">
    <circle id="Ellipse_114" data-name="Ellipse 114" cx="391" cy="391" r="391" transform="translate(155.584)" fill="rgba(67,72,130,0.26)"/>
    <circle id="Ellipse_115" data-name="Ellipse 115" cx="282" cy="282" r="282" transform="translate(278.584 109)" fill="rgba(65,67,130,0.25)"/>
    <g id="Component_2_9" data-name="Component 2 – 9" transform="translate(0 162.361)">
      <path id="Path_6" data-name="Path 6" d="M875.875,776.508s.278,88.409-103.63,150.61,342.536,51.867,250.416.063S918.545,776.508,918.545,776.508s-10.218,1.163-20.886,1.163S875.875,776.508,875.875,776.508Z" transform="translate(378.746 -812.546) rotate(47)" fill="url(#linear-gradient)"/>
      <path id="Path_4" data-name="Path 4" d="M.773,2.5H79.507l-9.3,31.576a195.91,195.91,0,0,1-29.916,2.562A233.707,233.707,0,0,1,8.727,34.076Z" transform="translate(423.951 316.209) rotate(47)" fill="#bf6663" stroke="#404040" stroke-width="5"/>
      <path id="Path_1" data-name="Path 1" d="M129,54.03c31.615,45.624,60.013,106.709,60.013,182.437,0,78.771-16.1,148.281-40.748,189.835-14.87,25.071-89.958,25.227-104.992.046C18.706,385.2,2.5,315.493,2.5,236.468c0-75.662,28.431-136.889,60.057-182.5S97.388,8.406,129,54.03Z" transform="translate(698.376 -15.323) rotate(47)" fill="#f6d9cf" stroke="#404040" stroke-width="5"/>
      <path id="Path_2" data-name="Path 2" d="M790.809,722.472,801.235,750.5s-1.6,32.182-17.353,47.474-43.523,19.5-43.523,19.5-3.234-41.39,9.378-65.142S790.809,722.472,790.809,722.472Z" transform="translate(425.975 -813.394) rotate(47)" fill="#bf6663" stroke="#404040" stroke-width="5"/>
      <path id="Path_3" data-name="Path 3" d="M750.413,722.472,739.988,750.5s1.6,32.182,17.353,47.474,43.523,19.5,43.523,19.5,3.234-41.39-9.378-65.142S750.413,722.472,750.413,722.472Z" transform="translate(555.184 -674.835) rotate(47)" fill="#bf6663" stroke="#404040" stroke-width="5"/>
      <g id="Ellipse_1" data-name="Ellipse 1" transform="translate(631.244 129.336) rotate(47)" fill="#c6d9eb" stroke="#404040" stroke-width="5">
        <circle cx="36.087" cy="36.087" r="36.087" stroke="none"/>
        <circle cx="36.087" cy="36.087" r="33.587" fill="none"/>
      </g>
      <path id="Intersection_1" data-name="Intersection 1" d="M0,66.332a377.65,377.65,0,0,1,20.025-32.15c31.626-45.609,34.831-45.564,66.446.061,6.9,9.952,13.638,20.637,19.967,32.052-12.687,8.97-31.83,14.684-53.245,14.684C31.806,80.979,12.687,75.282,0,66.332Z" transform="translate(712.91 29.276) rotate(47)" fill="#bf6663" stroke="#404040" stroke-width="5"/>
      <path id="Path_9" data-name="Path 9" d="M25.255-.361c6.421,0,12.735,3.138,17.454,7.3,5.217,4.6,8.986,11.02,8.986,18.917,0,14.436-11.856,26.4-26.03,26.4A25.9,25.9,0,0,1,0,26.12C0,11.684,11.081-.361,25.255-.361Z" transform="translate(636.765 143.619) rotate(47)" fill="rgba(255,255,255,0.33)"/>
      <path id="Path_7" data-name="Path 7" d="M2.087.057,60.585,0a35.712,35.712,0,0,1,2.17,10.495A35.513,35.513,0,0,1,61.21,20.8L1.495,20.67A34.989,34.989,0,0,1,.009,10.435,37.72,37.72,0,0,1,2.087.057Z" transform="translate(597.558 170.697) rotate(-3)" fill="rgba(255,255,255,0.5)"/>
      <path id="Path_8" data-name="Path 8" d="M68.644,71.537S53.508,81.2,42.767,81.2C20.528,81.2,0,62.943,0,40.7A40.318,40.318,0,0,1,15.073,9.291c1.988-1.107,4.956-2.184,10.854,2.448,6.339,4.979,13.318,14.668,20.007,24.25C57.809,53,68.644,71.537,68.644,71.537Z" transform="translate(741 50.494) rotate(47)" fill="rgba(255,255,255,0.33)"/>
      <path id="Path_10" data-name="Path 10" d="M0,0,78.463.3l-1.834,9.713-2.9,10.735-63.065.4S6.428,14.586,3.788,9.294A60.567,60.567,0,0,1,0,0Z" transform="translate(671.453 90.973) rotate(-3)" fill="rgba(255,255,255,0.5)"/>
      <path id="Path_11" data-name="Path 11" d="M2.457,3.671A188.041,188.041,0,0,0,34.7,6.746,168.772,168.772,0,0,0,65.907,3.673L64.152,9.6A149.96,149.96,0,0,1,34.7,13.084c-14.466,0-30.769-3.464-30.769-3.464Z" transform="translate(414.688 332.441) rotate(47)" fill="rgba(64,64,64,0.1)"/>
      <path id="Path_12" data-name="Path 12" d="M807.245,549.326s.284,13.755,1.038,26.2,2,23.641,2,23.641,46.695,10.8,91.767,10.789,88.522-10.845,88.522-10.845,1.284-11.811,2.039-24.25.923-25.631.923-25.631-44.911,9.467-91.484,9.49S807.245,549.326,807.245,549.326Z" transform="translate(371.701 -810.922) rotate(47)" fill="#bf6663" stroke="#404040" stroke-width="5"/>
      <rect id="Rectangle_1" data-name="Rectangle 1" width="18.002" height="5.685" transform="translate(618.919 154.095) rotate(-3)" fill="rgba(255,255,255,0.33)"/>
      <rect id="Rectangle_2" data-name="Rectangle 2" width="18.002" height="5.685" transform="translate(712.323 70.881) rotate(-3)" fill="rgba(255,255,255,0.33)"/>
      <path id="Path_13" data-name="Path 13" d="M107.738,100.795c52.7-2.673,74.506-8.617,74.506-8.617s-.263,11.085-.922,22.528-1.93,22.713-1.93,22.713-57.634,13.826-106.36,9.461C14.951,146.88.916,91.644.916,91.644S55.039,103.468,107.738,100.795Z" transform="translate(587.012 94.272) rotate(47)" fill="rgba(255,255,255,0.33)"/>
      <path id="Path_15" data-name="Path 15" d="M748.254,722.472l-8.266,21.472s1.268,24.652,13.758,36.365,34.508,14.939,34.508,14.939,2.564-31.705-7.436-49.9S748.254,722.472,748.254,722.472Z" transform="translate(555.654 -670.164) rotate(47)" fill="rgba(255,255,255,0.33)"/>
      <path id="Path_16" data-name="Path 16" d="M779.891,722.523l9.638,25.523s-.937,24.084-13.427,35.8-34.744,12.934-34.744,12.934-3.834-32.623,6.166-50.817S779.891,722.523,779.891,722.523Z" transform="translate(430.278 -804.617) rotate(47)" fill="rgba(255,255,255,0.33)"/>
      <path id="Path_17" data-name="Path 17" d="M0,.014A80.3,80.3,0,0,1,8.6,5.568a51.036,51.036,0,0,1,6.559,6.058s4.414,9.514,4.4,26.2S15.1,78.369,15.1,78.369a79.221,79.221,0,0,1-7.832-3.324C3.481,73.151,0,71.064,0,71.064s4.422-22.108,4.422-39.87A109.943,109.943,0,0,0,0,.014Z" transform="translate(543.317 385.111) rotate(47)" fill="rgba(255,255,255,0.33)"/>
      <path id="Path_18" data-name="Path 18" d="M3.676,6.744l9.331-3.429,3.212,8.828S19.766,21.314,19.752,38s-7.332,27.622-7.332,27.622a47.437,47.437,0,0,1-5.9,8.144c-2.871,2.857-1.908-24.637-1.908-42.4S3.676,6.744,3.676,6.744Z" transform="translate(427.471 246.735) rotate(47)" fill="rgba(255,255,255,0.33)"/>
      <rect id="Rectangle_3" data-name="Rectangle 3" width="18.002" height="5.685" transform="translate(581.413 287.527) rotate(-3)" fill="rgba(255,255,255,0.33)"/>
      <rect id="Rectangle_4" data-name="Rectangle 4" width="18.002" height="5.685" transform="matrix(0.719, -0.695, 0.695, 0.719, 520.771, 418.658)" fill="rgba(255,255,255,0.33)"/>
      <rect id="Rectangle_5" data-name="Rectangle 5" width="18.002" height="5.685" transform="matrix(0.719, -0.695, 0.695, 0.719, 398.001, 287.003)" fill="rgba(255,255,255,0.33)"/>
      <path id="Path_20" data-name="Path 20" d="M1045.1,496.135s-4.392,38.445-14,70.607S1009.96,619.4,1009.96,619.4s-6.253,18.863-46.681,20.9c-16.929.593-44.455-1.927-55.094-16.2s17.209-37.775,28.216-67.38,15.668-50.489,15.668-50.489a346.833,346.833,0,0,0,46.3-2.434c8.97-1.171,17.081-2.075,25.1-3.423C1035.277,498.388,1045.1,496.135,1045.1,496.135Z" transform="translate(255.061 -780.487) rotate(47)" fill="rgba(255,255,255,0.33)"/>
      <path id="Path_21" data-name="Path 21" d="M960.486,438.327s25.5-.111,47.451-2.3,43.409-6.44,43.409-6.44.883-41.177-8.695-79.681S1013.02,275.4,1013.02,275.4a63.332,63.332,0,0,1-17.565,8.691c-10.737,3.456-25.4,4.808-25.4,4.808l-3.25,45.137s9.236.394,17.745,8.568a41.711,41.711,0,0,1,9.406,12.668c1.385,2.753,3.934,10.576,2.618,20.174-.505,3.686-3.75,14.554-10.123,19.976-3.319,2.824-4.709,4.679-10.71,7.363a44.214,44.214,0,0,1-13.146,3.156Z" transform="translate(244.618 -774.677) rotate(47)" fill="rgba(255,255,255,0.33)"/>
      <path id="Path_22" data-name="Path 22" d="M960.2,452.171s24.226.153,46.925-2.088A430.962,430.962,0,0,0,1051,443.208s-.226,11.787-.943,23.12-1.925,22.211-1.925,22.211a408.165,408.165,0,0,1-44.152,7.421c-23.253,2.5-48.861,2.584-48.861,2.584s2.076-12.991,3.347-24.584S960.2,452.171,960.2,452.171Z" transform="translate(251.26 -780.485) rotate(47)" fill="rgba(255,255,255,0.33)"/>
      <path id="Path_23" data-name="Path 23" d="M928.992,664.331a234.941,234.941,0,0,0,30.562,2.3,187.155,187.155,0,0,0,27.228-2.3l4.735-15.913a130.334,130.334,0,0,1-26.446,9.906C949.456,662.383,928.992,664.331,928.992,664.331Z" transform="translate(260.083 -786.836) rotate(47)" fill="rgba(255,255,255,0.33)"/>
      <g id="wolk">
        <path id="Path_31" data-name="Path 31" d="M2937.629,9120.923c8.766,10.355,7.6,111.7,72.944,166.455,91.844,76.969,257.941,112.371,266.907,114,15.327,2.793,11.722-76.115-19.38-122.535s-53.295-24.633-100.5-66.107-35.54-60.7-89.4-84.4S2916.506,9095.97,2937.629,9120.923Z" transform="translate(-2877.416 -8692.361)" fill="#fcfcfc"/>
        <g id="Group_7" data-name="Group 7" transform="matrix(0.719, 0.695, -0.695, 0.719, 321.54, -390.86)">
          <path id="Subtraction_7" data-name="Subtraction 7" d="M156.5,63.5H30.5l0-.5a63,63,0,0,1,126,0l0,.5Z" transform="translate(369 618.5)" fill="#fcfcfc" stroke="#f3f3f3" stroke-width="5"/>
          <rect id="Rectangle_23" data-name="Rectangle 23" width="121" height="6" transform="translate(402 679)" fill="#fcfcfc"/>
        </g>
        <g id="Group_8" data-name="Group 8" transform="translate(386.825 -330.938) rotate(45)">
          <path id="Subtraction_8" data-name="Subtraction 8" d="M156.5,63.5H30.5l0-.5a63,63,0,0,1,126,0l0,.5Z" transform="translate(369 618.5)" fill="#fcfcfc" stroke="#f3f3f3" stroke-width="5"/>
          <rect id="Rectangle_25" data-name="Rectangle 25" width="121" height="6" transform="translate(402 679)" fill="#fcfcfc"/>
        </g>
        <g id="Group_10" data-name="Group 10" transform="translate(1060.637 115.721) rotate(90)">
          <path id="Subtraction_10" data-name="Subtraction 10" d="M156.5,63.5H30.5l0-.5a63,63,0,0,1,126,0l0,.5Z" transform="translate(369 618.5)" fill="#fcfcfc" stroke="#f3f3f3" stroke-width="5"/>
          <rect id="Rectangle_29" data-name="Rectangle 29" width="121" height="6" transform="translate(402 679)" fill="#fcfcfc"/>
        </g>
        <g id="Group_9" data-name="Group 9" transform="matrix(0.857, 0.515, -0.515, 0.857, 286.206, -268.831)">
          <path id="Subtraction_9" data-name="Subtraction 9" d="M156.5,63.5H30.5l0-.5a63,63,0,0,1,126,0l0,.5Z" transform="translate(369 618.5)" fill="#fcfcfc" stroke="#f3f3f3" stroke-width="5"/>
          <rect id="Rectangle_27" data-name="Rectangle 27" width="121" height="6" transform="translate(402 679)" fill="#fcfcfc"/>
        </g>
        <g id="Group_11" data-name="Group 11" transform="translate(730.327 -90.085) rotate(60)">
          <path id="Subtraction_11" data-name="Subtraction 11" d="M156.5,63.5H30.5l0-.5a63,63,0,0,1,126,0l0,.5Z" transform="translate(369 618.5)" fill="#fcfcfc" stroke="#f3f3f3" stroke-width="5"/>
          <rect id="Rectangle_31" data-name="Rectangle 31" width="121" height="6" transform="translate(402 679)" fill="#fcfcfc"/>
        </g>
        <g id="Group_15" data-name="Group 15" transform="translate(-240.408 -308.745) rotate(8)">
          <path id="Subtraction_13" data-name="Subtraction 13" d="M156.5,63.5H30.5l0-.5a63,63,0,0,1,126,0l0,.5Z" transform="translate(369 618.5)" fill="#fcfcfc" stroke="#f3f3f3" stroke-width="5"/>
          <rect id="Rectangle_35" data-name="Rectangle 35" width="121" height="6" transform="translate(402 679)" fill="#fcfcfc"/>
        </g>
        <g id="Group_16" data-name="Group 16" transform="matrix(0.777, -0.629, 0.629, 0.777, -699.705, 230.586)">
          <path id="Subtraction_13-2" data-name="Subtraction 13" d="M156.5,63.5H30.5l0-.5a63,63,0,0,1,126,0l0,.5Z" transform="translate(369 618.5)" fill="#fcfcfc" stroke="#f3f3f3" stroke-width="5"/>
          <rect id="Rectangle_35-2" data-name="Rectangle 35" width="121" height="6" transform="translate(402 679)" fill="#fcfcfc"/>
        </g>
        <g id="Group_17" data-name="Group 17" transform="translate(-707.663 680.702) rotate(-68)">
          <path id="Subtraction_13-3" data-name="Subtraction 13" d="M156.5,63.5H30.5l0-.5a63,63,0,0,1,126,0l0,.5Z" transform="translate(369 618.5)" fill="#fcfcfc" stroke="#f3f3f3" stroke-width="5"/>
          <rect id="Rectangle_35-3" data-name="Rectangle 35" width="121" height="6" transform="translate(402 679)" fill="#fcfcfc"/>
        </g>
        <g id="Group_18" data-name="Group 18" transform="translate(2.644 1384.114) rotate(-137)">
          <path id="Subtraction_13-4" data-name="Subtraction 13" d="M156.5,63.5H30.5l0-.5a63,63,0,0,1,126,0l0,.5Z" transform="translate(369 618.5)" fill="#fcfcfc" stroke="#f3f3f3" stroke-width="5"/>
          <rect id="Rectangle_35-4" data-name="Rectangle 35" width="121" height="6" transform="translate(402 679)" fill="#fcfcfc"/>
        </g>
        <g id="Group_19" data-name="Group 19" transform="translate(275.422 1446.288) rotate(-151)">
          <path id="Subtraction_13-5" data-name="Subtraction 13" d="M121.687,66.32H0L0,65.8C0,29.516,27.295,0,60.845,0s60.845,29.516,60.845,65.8l0,.522Z" transform="translate(399.5 618.5)" fill="#fcfcfc" stroke="#f3f3f3" stroke-width="5"/>
          <rect id="Rectangle_35-5" data-name="Rectangle 35" width="116.689" height="6" transform="translate(402 681.819)" fill="#fcfcfc"/>
        </g>
        <g id="Group_20" data-name="Group 20" transform="translate(809.385 1359.78) rotate(180)">
          <path id="Subtraction_13-6" data-name="Subtraction 13" d="M156.5,63.5H30.5l0-.5a63,63,0,0,1,126,0l0,.5Z" transform="translate(369 618.5)" fill="#fcfcfc" stroke="#f3f3f3" stroke-width="5"/>
          <rect id="Rectangle_35-6" data-name="Rectangle 35" width="121" height="6" transform="translate(402 679)" fill="#fcfcfc"/>
        </g>
        <g id="Group_21" data-name="Group 21" transform="translate(427.309 1480.549) rotate(-156)">
          <path id="Subtraction_13-7" data-name="Subtraction 13" d="M156.5,63.5H30.5l0-.5a63,63,0,0,1,126,0l0,.5Z" transform="translate(369 618.5)" fill="#fcfcfc" stroke="#f3f3f3" stroke-width="5"/>
          <rect id="Rectangle_35-7" data-name="Rectangle 35" width="121" height="6" transform="translate(402 679)" fill="#fcfcfc"/>
        </g>
      </g>
    </g>
  </g>
</svg>
