<svg xmlns="http://www.w3.org/2000/svg" width="678" height="616" viewBox="0 0 678 616">
  <path id="loadingscreenblur" d="M39.514,616a28,28,0,0,1,0-56H83.388V504.83L83.4,560h0a27.969,27.969,0,0,0,19.754-8.268,28.132,28.132,0,0,0,8.235-19.817v-.1A27.746,27.746,0,0,0,83.738,504H623.527a27.976,27.976,0,0,0-19.6,8.268,28.132,28.132,0,0,0-8.235,19.817v.1A27.746,27.746,0,0,0,623.345,560v0h-.583a28,28,0,0,1-.318,56Zm584.177-62.268L623.684,504h.009v49.731ZM28,504a28,28,0,1,1,0-56H67.329V397.676L67.339,448h0a27.759,27.759,0,0,0,10.867-2.239,28.192,28.192,0,0,0,17.122-25.846v-.1A27.744,27.744,0,0,0,67.679,392H47.09a28,28,0,1,1,0-56h12.2V280.777L59.3,336h0a27.97,27.97,0,0,0,19.754-8.268,28.132,28.132,0,0,0,8.235-19.817v-.1A27.746,27.746,0,0,0,59.643,280H47.09a28,28,0,1,1,0-56h70.139V168.732l.01,55.268h0a27.969,27.969,0,0,0,19.754-8.268,28.121,28.121,0,0,0,8.235-19.817v-.1A27.746,27.746,0,0,0,117.579,168H601.421a27.976,27.976,0,0,0-19.6,8.268,28.137,28.137,0,0,0-8.236,19.817v.1A27.746,27.746,0,0,0,601.24,224h12.794a28,28,0,1,1,0,56H548.647v49.82h0L548.638,280h-.157a27.976,27.976,0,0,0-19.6,8.268,28.137,28.137,0,0,0-8.236,19.817v.1A27.744,27.744,0,0,0,548.3,336H650a28,28,0,0,1,0,56H601.64v50.324h0L601.63,392h-.238a27.976,27.976,0,0,0-19.516,8.267,28.137,28.137,0,0,0-8.236,19.817v.1A27.746,27.746,0,0,0,601.292,448h33.615a28,28,0,1,1,0,56ZM601.585,217.778,601.579,168h.009v49.777ZM52.231,168a28,28,0,0,1,0-56H64.993V56.83L65,112h0a27.969,27.969,0,0,0,19.754-8.268,28.132,28.132,0,0,0,8.235-19.817v-.1A27.746,27.746,0,0,0,65.343,56h532.8a27.976,27.976,0,0,0-19.6,8.268A28.137,28.137,0,0,0,570.3,84.085v.1A27.744,27.744,0,0,0,597.957,112h47.193a28,28,0,0,1,0,56ZM598.3,106.362,598.295,56h.011v50.362ZM47.09,56a28,28,0,1,1,0-56H650a28,28,0,0,1,0,56Z" fill="#bf6663"/>
</svg>
