<svg id="maan" xmlns="http://www.w3.org/2000/svg" width="1070.644" height="137.068" viewBox="0 0 1070.644 137.068">
  <g id="Path_32" data-name="Path 32" transform="translate(-67.047)" fill="#fffbd6">
    <path d="M 716.9129638671875 135.0681304931641 C 550.9624633789063 135.0681304931641 334.2581176757813 134.767578125 72.77938079833984 134.1748809814453 C 93.90777587890625 117.7721328735352 119.5477905273438 102.3163986206055 149.05322265625 88.2008056640625 C 179.8046875 73.48920440673828 214.6701507568359 60.27386856079102 252.6813507080078 48.92173767089844 C 258.9105529785156 47.06133651733398 265.2737426757813 45.53786849975586 272.0105590820313 43.92507171630859 C 276.1237487792969 42.94040298461914 280.376953125 41.92213821411133 284.6057434082031 40.81813812255859 C 331.8934936523438 28.47240257263184 382.401611328125 18.89653587341309 434.7273559570313 12.35613632202148 C 489.704833984375 5.484270095825195 546.48828125 2.000003337860107 603.5 2.000003337860107 C 660.1708374023438 2.000003337860107 716.25537109375 5.27440357208252 770.1958618164063 11.73240375518799 C 822.4583129882813 17.98946952819824 872.5007934570313 27.20347023010254 918.93310546875 39.11867141723633 C 964.6187133789063 50.84226989746094 1006.418395996094 65.07627105712891 1043.171142578125 81.42507171630859 C 1078.195922851563 97.00527954101563 1108.293701171875 114.3543090820313 1132.709106445313 133.0301513671875 C 1130.435424804688 133.1514587402344 1127.280639648438 133.2677917480469 1123.306762695313 133.3768005371094 C 1111.957885742188 133.6878662109375 1093.155639648438 133.9591979980469 1067.422119140625 134.1836090087891 C 1000.082946777344 134.7705383300781 882.1546630859375 135.0681304931641 716.9129638671875 135.0681304931641 Z" stroke="none"/>
    <path d="M 603.5 4 C 546.57080078125 4 489.8709716796875 7.47906494140625 434.975341796875 14.34066772460938 C 382.7360229492188 20.87026977539063 332.314453125 30.42960357666016 285.1109619140625 42.75320434570313 C 280.862548828125 43.86240386962891 276.5994873046875 44.8829345703125 272.4766845703125 45.87000274658203 C 265.767333984375 47.47627258300781 259.43017578125 48.99346923828125 253.2537841796875 50.83800506591797 C 215.3419189453125 62.16053771972656 180.5740966796875 75.338134765625 149.916259765625 90.00493621826172 C 122.689208984375 103.0305557250977 98.7767333984375 117.1956634521484 78.69140625 132.1882476806641 C 337.5195922851563 132.7721405029297 552.1875 133.0681304931641 716.9129638671875 133.0681304931641 C 880.0733642578125 133.0681304931641 997.1349487304688 132.7778625488281 1064.84619140625 132.2055969238281 C 1090.878295898438 131.985595703125 1110.0693359375 131.7192077636719 1121.886108398438 131.4138641357422 C 1123.851196289063 131.3630981445313 1125.553344726563 131.3126831054688 1127.026733398438 131.2634582519531 C 1103.562866210938 113.9567260742188 1075.131958007813 97.83127593994141 1042.358154296875 83.25240325927734 C 1005.707214355469 66.94880676269531 964.0137939453125 52.75186920166016 918.43603515625 41.05599975585938 C 872.0886840820313 29.16253662109375 822.1334838867188 19.96480560302734 769.9580078125 13.7181396484375 C 716.09619140625 7.269729614257813 660.0916137695313 4 603.5 4 M 603.5 0 C 835.1444091796875 0 1036.306640625 54.38800048828125 1137.588500976563 134.2880096435547 C 1138.69140625 135.1580505371094 1138.226928710938 137.0681457519531 716.9129638671875 137.0681457519531 C 563.1367797851563 137.0681457519531 353.3738403320313 136.81396484375 67.047119140625 136.161865234375 C 67.047119140625 136.161865234375 68.111572265625 135.3050689697266 68.7271728515625 134.8154754638672 C 112.550537109375 99.95240783691406 175.6776123046875 69.83173370361328 252.1090698242188 47.00533294677734 C 262.3224487304688 43.95507049560547 273.1652221679688 41.73786926269531 284.1005859375 38.8829345703125 C 376.7421264648438 14.696533203125 486.0021362304688 0 603.5 0 Z" stroke="none" fill="#303030"/>
  </g>
  <path id="Path_364" data-name="Path 364" d="M606.424,0c232.907,0,436.186,51.334,538.021,126.119-3.089.179-1.038,3.216-884.233,1.437q-82.887-.167-176.673-.393s93.732-60.151,170.58-81.516c10.269-2.855,20.171-6.58,31.165-9.253C378.43,13.756,488.286,0,606.424,0Z" transform="translate(-79.047 8.873)" fill="#fffbd6"/>
  <g id="kraters" transform="translate(-412.047 -948)">
    <g id="Component_23_5" data-name="Component 23 – 5" transform="translate(591.486 1035.568)">
      <path id="Subtraction_89" data-name="Subtraction 89" d="M4.2,9.883A5.082,5.082,0,0,1-1,4.942,5.082,5.082,0,0,1,4.2,0a5.554,5.554,0,0,1,.578.03A4.892,4.892,0,0,0,.486,4.942,4.893,4.893,0,0,0,4.778,9.853,5.574,5.574,0,0,1,4.2,9.883Z" transform="translate(3.946 4.264) rotate(-19)" fill="#f8eb79"/>
      <g id="Ellipse_129" data-name="Ellipse 129" transform="translate(0 4.59) rotate(-19)" fill="none" stroke="#404040" stroke-width="3">
        <ellipse cx="7.049" cy="5.442" rx="7.049" ry="5.442" stroke="none"/>
        <ellipse cx="7.049" cy="5.442" rx="5.549" ry="3.942" fill="none"/>
      </g>
    </g>
    <g id="Component_23_16" data-name="Component 23 – 16" transform="translate(976.077 1034.499) rotate(11)">
      <path id="Subtraction_89-2" data-name="Subtraction 89" d="M13.2,22.883C5.37,22.883-1,17.75-1,11.441S5.37,0,13.2,0c.526,0,1.057.023,1.577.07C8.1.711,3.057,5.6,3.057,11.441S8.1,22.172,14.778,22.813C14.235,22.861,13.7,22.883,13.2,22.883Z" transform="translate(4.225 15.068) rotate(-20)" fill="#f8eb79"/>
      <g id="Ellipse_129-2" data-name="Ellipse 129" transform="translate(0 13.055) rotate(-19)" fill="none" stroke="#404040" stroke-width="3">
        <ellipse cx="20.049" cy="14.442" rx="20.049" ry="14.442" stroke="none"/>
        <ellipse cx="20.049" cy="14.442" rx="18.549" ry="12.942" fill="none"/>
      </g>
    </g>
    <g id="Component_23_2" data-name="Component 23 – 2" transform="translate(710.486 1065.568)">
      <path id="Subtraction_89-3" data-name="Subtraction 89" d="M4.2,9.883A5.082,5.082,0,0,1-1,4.942,5.082,5.082,0,0,1,4.2,0a5.554,5.554,0,0,1,.578.03A4.892,4.892,0,0,0,.486,4.942,4.893,4.893,0,0,0,4.778,9.853,5.574,5.574,0,0,1,4.2,9.883Z" transform="translate(3.946 4.264) rotate(-19)" fill="#f8eb79"/>
      <g id="Ellipse_129-3" data-name="Ellipse 129" transform="translate(0 4.59) rotate(-19)" fill="none" stroke="#404040" stroke-width="3">
        <ellipse cx="7.049" cy="5.442" rx="7.049" ry="5.442" stroke="none"/>
        <ellipse cx="7.049" cy="5.442" rx="5.549" ry="3.942" fill="none"/>
      </g>
    </g>
    <g id="Component_23_18" data-name="Component 23 – 18" transform="translate(789.486 1007.568)">
      <path id="Subtraction_89-4" data-name="Subtraction 89" d="M4.2,9.883A5.082,5.082,0,0,1-1,4.942,5.082,5.082,0,0,1,4.2,0a5.554,5.554,0,0,1,.578.03A4.892,4.892,0,0,0,.486,4.942,4.893,4.893,0,0,0,4.778,9.853,5.574,5.574,0,0,1,4.2,9.883Z" transform="translate(3.946 4.264) rotate(-19)" fill="#f8eb79"/>
      <g id="Ellipse_129-4" data-name="Ellipse 129" transform="translate(0 4.59) rotate(-19)" fill="none" stroke="#404040" stroke-width="3">
        <ellipse cx="7.049" cy="5.442" rx="7.049" ry="5.442" stroke="none"/>
        <ellipse cx="7.049" cy="5.442" rx="5.549" ry="3.942" fill="none"/>
      </g>
    </g>
    <g id="Component_23_19" data-name="Component 23 – 19" transform="translate(999.486 978.568)">
      <path id="Subtraction_89-5" data-name="Subtraction 89" d="M4.2,9.883A5.082,5.082,0,0,1-1,4.942,5.082,5.082,0,0,1,4.2,0a5.554,5.554,0,0,1,.578.03A4.892,4.892,0,0,0,.486,4.942,4.893,4.893,0,0,0,4.778,9.853,5.574,5.574,0,0,1,4.2,9.883Z" transform="translate(3.946 4.264) rotate(-19)" fill="#f8eb79"/>
      <g id="Ellipse_129-5" data-name="Ellipse 129" transform="translate(0 4.59) rotate(-19)" fill="none" stroke="#404040" stroke-width="3">
        <ellipse cx="7.049" cy="5.442" rx="7.049" ry="5.442" stroke="none"/>
        <ellipse cx="7.049" cy="5.442" rx="5.549" ry="3.942" fill="none"/>
      </g>
    </g>
    <g id="Component_23_20" data-name="Component 23 – 20" transform="translate(1143.486 998.568)">
      <path id="Subtraction_89-6" data-name="Subtraction 89" d="M4.2,9.883A5.082,5.082,0,0,1-1,4.942,5.082,5.082,0,0,1,4.2,0a5.554,5.554,0,0,1,.578.03A4.892,4.892,0,0,0,.486,4.942,4.893,4.893,0,0,0,4.778,9.853,5.574,5.574,0,0,1,4.2,9.883Z" transform="translate(3.946 4.264) rotate(-19)" fill="#f8eb79"/>
      <g id="Ellipse_129-6" data-name="Ellipse 129" transform="translate(0 4.59) rotate(-19)" fill="none" stroke="#404040" stroke-width="3">
        <ellipse cx="7.049" cy="5.442" rx="7.049" ry="5.442" stroke="none"/>
        <ellipse cx="7.049" cy="5.442" rx="5.549" ry="3.942" fill="none"/>
      </g>
    </g>
    <g id="Component_23_21" data-name="Component 23 – 21" transform="translate(1290.486 1035.568)">
      <path id="Subtraction_89-7" data-name="Subtraction 89" d="M4.2,9.883A5.082,5.082,0,0,1-1,4.942,5.082,5.082,0,0,1,4.2,0a5.554,5.554,0,0,1,.578.03A4.892,4.892,0,0,0,.486,4.942,4.893,4.893,0,0,0,4.778,9.853,5.574,5.574,0,0,1,4.2,9.883Z" transform="translate(3.946 4.264) rotate(-19)" fill="#f8eb79"/>
      <g id="Ellipse_129-7" data-name="Ellipse 129" transform="translate(0 4.59) rotate(-19)" fill="none" stroke="#404040" stroke-width="3">
        <ellipse cx="7.049" cy="5.442" rx="7.049" ry="5.442" stroke="none"/>
        <ellipse cx="7.049" cy="5.442" rx="5.549" ry="3.942" fill="none"/>
      </g>
    </g>
    <g id="Component_23_3" data-name="Component 23 – 3" transform="translate(486.423 1063.639)">
      <path id="Subtraction_89-8" data-name="Subtraction 89" d="M5.961,7.633C3.166,7.233.72,5.358.507,3.454S2.4.326,5.192.726c.188.027.378.061.565.1-2.364-.148-4,1.069-3.8,2.834s2.159,3.5,4.566,4.032C6.329,7.679,6.141,7.659,5.961,7.633Z" transform="translate(0.671 3.888) rotate(-31)" fill="#f8eb79"/>
      <g id="Path_363" data-name="Path 363" transform="translate(0.063 3.285) rotate(-19)" fill="none">
        <path d="M4.981-.06c2.751-.033,4.96,1.715,4.934,3.9S7.639,7.833,4.888,7.866s-4.96-1.715-4.934-3.9S2.23-.027,4.981-.06Z" stroke="none"/>
        <path d="M 5.057097911834717 2.939834117889404 L 5.016527652740479 2.94007396697998 C 3.74050760269165 2.955374240875244 2.957377910614014 3.682204246520996 2.953707695007324 3.997754096984863 C 2.952457904815674 4.105224132537842 3.071247577667236 4.237144470214844 3.122377872467041 4.28887414932251 C 3.398387908935547 4.568114280700684 3.987167835235596 4.866494178771973 4.8118577003479 4.866494178771973 L 4.852427959442139 4.866253852844238 C 6.128447532653809 4.850954055786133 6.911577701568604 4.124124050140381 6.915247917175293 3.808574199676514 C 6.916497707366943 3.701104164123535 6.797707557678223 3.569184303283691 6.746577739715576 3.517454147338867 C 6.47056770324707 3.238214015960693 5.881787776947021 2.939834117889404 5.057097911834717 2.939834117889404 M 5.057098388671875 -0.0601649284362793 C 7.772171974182129 -0.0601649284362793 9.940261840820313 1.675128936767578 9.915047645568848 3.843454122543335 C 9.88958740234375 6.03209400177002 7.639078140258789 7.833064079284668 4.888387680053711 7.866034030914307 C 4.862868785858154 7.866340160369873 4.837281703948975 7.866493225097656 4.811857223510742 7.866493225097656 C 2.096784114837646 7.866493225097656 -0.07130622863769531 6.131199359893799 -0.04609203338623047 3.962874174118042 C -0.02063179016113281 1.774234294891357 2.229877948760986 -0.02673578262329102 4.980567932128906 -0.05970573425292969 C 5.006086826324463 -0.06001186370849609 5.031673908233643 -0.0601649284362793 5.057098388671875 -0.0601649284362793 Z" stroke="none" fill="#404040"/>
      </g>
    </g>
    <g id="Component_23_15" data-name="Component 23 – 15" transform="translate(1377.423 1054.639)">
      <path id="Subtraction_89-9" data-name="Subtraction 89" d="M5.961,7.633C3.166,7.233.72,5.358.507,3.454S2.4.326,5.192.726c.188.027.378.061.565.1-2.364-.148-4,1.069-3.8,2.834s2.159,3.5,4.566,4.032C6.329,7.679,6.141,7.659,5.961,7.633Z" transform="translate(-0.329 4.888) rotate(-31)" fill="#f8eb79"/>
      <g id="Path_363-2" data-name="Path 363" transform="translate(0.063 3.285) rotate(-19)" fill="none">
        <path d="M4.981-.06c2.751-.033,4.96,1.715,4.934,3.9S7.639,7.833,4.888,7.866s-4.96-1.715-4.934-3.9S2.23-.027,4.981-.06Z" stroke="none"/>
        <path d="M 5.057097911834717 2.939834117889404 L 5.016527652740479 2.94007396697998 C 3.74050760269165 2.955374240875244 2.957377910614014 3.682204246520996 2.953707695007324 3.997754096984863 C 2.952457904815674 4.105224132537842 3.071247577667236 4.237144470214844 3.122377872467041 4.28887414932251 C 3.398387908935547 4.568114280700684 3.987167835235596 4.866494178771973 4.8118577003479 4.866494178771973 L 4.852427959442139 4.866253852844238 C 6.128447532653809 4.850954055786133 6.911577701568604 4.124124050140381 6.915247917175293 3.808574199676514 C 6.916497707366943 3.701104164123535 6.797707557678223 3.569184303283691 6.746577739715576 3.517454147338867 C 6.47056770324707 3.238214015960693 5.881787776947021 2.939834117889404 5.057097911834717 2.939834117889404 M 5.057098388671875 -0.0601649284362793 C 7.772171974182129 -0.0601649284362793 9.940261840820313 1.675128936767578 9.915047645568848 3.843454122543335 C 9.88958740234375 6.03209400177002 7.639078140258789 7.833064079284668 4.888387680053711 7.866034030914307 C 4.862868785858154 7.866340160369873 4.837281703948975 7.866493225097656 4.811857223510742 7.866493225097656 C 2.096784114837646 7.866493225097656 -0.07130622863769531 6.131199359893799 -0.04609203338623047 3.962874174118042 C -0.02063179016113281 1.774234294891357 2.229877948760986 -0.02673578262329102 4.980567932128906 -0.05970573425292969 C 5.006086826324463 -0.06001186370849609 5.031673908233643 -0.0601649284362793 5.057098388671875 -0.0601649284362793 Z" stroke="none" fill="#404040"/>
      </g>
    </g>
    <g id="Component_23_8" data-name="Component 23 – 8" transform="translate(686.423 995.639)">
      <path id="Subtraction_89-10" data-name="Subtraction 89" d="M5.961,7.633C3.166,7.233.72,5.358.507,3.454S2.4.326,5.192.726c.188.027.378.061.565.1-2.364-.148-4,1.069-3.8,2.834s2.159,3.5,4.566,4.032C6.329,7.679,6.141,7.659,5.961,7.633Z" transform="translate(-0.329 4.888) rotate(-31)" fill="#f8eb79"/>
      <g id="Path_363-3" data-name="Path 363" transform="translate(0.063 3.285) rotate(-19)" fill="none">
        <path d="M4.981-.06c2.751-.033,4.96,1.715,4.934,3.9S7.639,7.833,4.888,7.866s-4.96-1.715-4.934-3.9S2.23-.027,4.981-.06Z" stroke="none"/>
        <path d="M 5.057097911834717 2.939834117889404 L 5.016527652740479 2.94007396697998 C 3.74050760269165 2.955374240875244 2.957377910614014 3.682204246520996 2.953707695007324 3.997754096984863 C 2.952457904815674 4.105224132537842 3.071247577667236 4.237144470214844 3.122377872467041 4.28887414932251 C 3.398387908935547 4.568114280700684 3.987167835235596 4.866494178771973 4.8118577003479 4.866494178771973 L 4.852427959442139 4.866253852844238 C 6.128447532653809 4.850954055786133 6.911577701568604 4.124124050140381 6.915247917175293 3.808574199676514 C 6.916497707366943 3.701104164123535 6.797707557678223 3.569184303283691 6.746577739715576 3.517454147338867 C 6.47056770324707 3.238214015960693 5.881787776947021 2.939834117889404 5.057097911834717 2.939834117889404 M 5.057098388671875 -0.0601649284362793 C 7.772171974182129 -0.0601649284362793 9.940261840820313 1.675128936767578 9.915047645568848 3.843454122543335 C 9.88958740234375 6.03209400177002 7.639078140258789 7.833064079284668 4.888387680053711 7.866034030914307 C 4.862868785858154 7.866340160369873 4.837281703948975 7.866493225097656 4.811857223510742 7.866493225097656 C 2.096784114837646 7.866493225097656 -0.07130622863769531 6.131199359893799 -0.04609203338623047 3.962874174118042 C -0.02063179016113281 1.774234294891357 2.229877948760986 -0.02673578262329102 4.980567932128906 -0.05970573425292969 C 5.006086826324463 -0.06001186370849609 5.031673908233643 -0.0601649284362793 5.057098388671875 -0.0601649284362793 Z" stroke="none" fill="#404040"/>
      </g>
    </g>
    <g id="Component_23_13" data-name="Component 23 – 13" transform="translate(1183.423 1061.639)">
      <path id="Subtraction_89-11" data-name="Subtraction 89" d="M5.961,7.633C3.166,7.233.72,5.358.507,3.454S2.4.326,5.192.726c.188.027.378.061.565.1-2.364-.148-4,1.069-3.8,2.834s2.159,3.5,4.566,4.032C6.329,7.679,6.141,7.659,5.961,7.633Z" transform="translate(-0.329 4.888) rotate(-31)" fill="#f8eb79"/>
      <g id="Path_363-4" data-name="Path 363" transform="translate(0.063 3.285) rotate(-19)" fill="none">
        <path d="M4.981-.06c2.751-.033,4.96,1.715,4.934,3.9S7.639,7.833,4.888,7.866s-4.96-1.715-4.934-3.9S2.23-.027,4.981-.06Z" stroke="none"/>
        <path d="M 5.057097911834717 2.939834117889404 L 5.016527652740479 2.94007396697998 C 3.74050760269165 2.955374240875244 2.957377910614014 3.682204246520996 2.953707695007324 3.997754096984863 C 2.952457904815674 4.105224132537842 3.071247577667236 4.237144470214844 3.122377872467041 4.28887414932251 C 3.398387908935547 4.568114280700684 3.987167835235596 4.866494178771973 4.8118577003479 4.866494178771973 L 4.852427959442139 4.866253852844238 C 6.128447532653809 4.850954055786133 6.911577701568604 4.124124050140381 6.915247917175293 3.808574199676514 C 6.916497707366943 3.701104164123535 6.797707557678223 3.569184303283691 6.746577739715576 3.517454147338867 C 6.47056770324707 3.238214015960693 5.881787776947021 2.939834117889404 5.057097911834717 2.939834117889404 M 5.057098388671875 -0.0601649284362793 C 7.772171974182129 -0.0601649284362793 9.940261840820313 1.675128936767578 9.915047645568848 3.843454122543335 C 9.88958740234375 6.03209400177002 7.639078140258789 7.833064079284668 4.888387680053711 7.866034030914307 C 4.862868785858154 7.866340160369873 4.837281703948975 7.866493225097656 4.811857223510742 7.866493225097656 C 2.096784114837646 7.866493225097656 -0.07130622863769531 6.131199359893799 -0.04609203338623047 3.962874174118042 C -0.02063179016113281 1.774234294891357 2.229877948760986 -0.02673578262329102 4.980567932128906 -0.05970573425292969 C 5.006086826324463 -0.06001186370849609 5.031673908233643 -0.0601649284362793 5.057098388671875 -0.0601649284362793 Z" stroke="none" fill="#404040"/>
      </g>
    </g>
    <g id="Component_23_17" data-name="Component 23 – 17" transform="translate(877.077 960.5) rotate(11)">
      <path id="Subtraction_89-12" data-name="Subtraction 89" d="M13.2,22.883C5.37,22.883-1,17.75-1,11.441S5.37,0,13.2,0c.526,0,1.057.023,1.577.07C8.1.711,3.057,5.6,3.057,11.441S8.1,22.172,14.778,22.813C14.235,22.861,13.7,22.883,13.2,22.883Z" transform="translate(4.225 15.068) rotate(-20)" fill="#f8eb79"/>
      <g id="Ellipse_129-8" data-name="Ellipse 129" transform="translate(0 13.055) rotate(-19)" fill="none" stroke="#404040" stroke-width="3">
        <ellipse cx="20.049" cy="14.442" rx="20.049" ry="14.442" stroke="none"/>
        <ellipse cx="20.049" cy="14.442" rx="18.549" ry="12.942" fill="none"/>
      </g>
    </g>
  </g>
</svg>
