<svg xmlns="http://www.w3.org/2000/svg" width="1919.57" height="1080" viewBox="0 0 1919.57 1080">
  <defs>
    <style>
      .cls-1 {
        fill: #bf6663;
      }

      .cls-2 {
        fill: #fbef85;
      }

      .cls-3 {
        fill: #f3e565;
      }

      .cls-4 {
        fill: #f6d9cf;
      }
    </style>
  </defs>
  <g id="ster_groot" data-name="ster groot" transform="translate(-72 -27)">
    <circle id="Ellipse_27" data-name="Ellipse 27" class="cls-1" cx="7.5" cy="7.5" r="7.5" transform="translate(435.244 88)"/>
    <g id="Group_641" data-name="Group 641">
      <g id="Group_640" data-name="Group 640">
        <rect id="Rectangle_54" data-name="Rectangle 54" class="cls-2" width="5.4" height="24" rx="2.7" transform="translate(443.076 591.09) rotate(90)"/>
        <rect id="Rectangle_55" data-name="Rectangle 55" class="cls-2" width="5.4" height="24" rx="2.7" transform="translate(428.607 581.214)"/>
      </g>
    </g>
    <g id="Group_649" data-name="Group 649" transform="translate(767 -111)">
      <g id="Group_640-2" data-name="Group 640">
        <rect id="Rectangle_54-2" data-name="Rectangle 54" class="cls-2" width="5.4" height="24" rx="2.7" transform="translate(443.076 591.09) rotate(90)"/>
        <rect id="Rectangle_55-2" data-name="Rectangle 55" class="cls-2" width="5.4" height="24" rx="2.7" transform="translate(428.607 581.214)"/>
      </g>
    </g>
    <g id="Group_646" data-name="Group 646" transform="translate(886 183)">
      <g id="Group_640-3" data-name="Group 640">
        <rect id="Rectangle_54-3" data-name="Rectangle 54" class="cls-2" width="5.4" height="24" rx="2.7" transform="translate(443.076 591.09) rotate(90)"/>
        <rect id="Rectangle_55-3" data-name="Rectangle 55" class="cls-2" width="5.4" height="24" rx="2.7" transform="translate(428.607 581.214)"/>
      </g>
    </g>
    <g id="Group_647" data-name="Group 647" transform="translate(165 -288)">
      <g id="Group_640-4" data-name="Group 640">
        <rect id="Rectangle_54-4" data-name="Rectangle 54" class="cls-2" width="5.4" height="24" rx="2.7" transform="translate(443.076 591.09) rotate(90)"/>
        <rect id="Rectangle_55-4" data-name="Rectangle 55" class="cls-2" width="5.4" height="24" rx="2.7" transform="translate(428.607 581.214)"/>
      </g>
    </g>
    <g id="Group_644" data-name="Group 644" transform="translate(177 412)">
      <g id="Group_640-5" data-name="Group 640">
        <rect id="Rectangle_54-5" data-name="Rectangle 54" class="cls-2" width="5.4" height="24" rx="2.7" transform="translate(443.076 591.09) rotate(90)"/>
        <rect id="Rectangle_55-5" data-name="Rectangle 55" class="cls-2" width="5.4" height="24" rx="2.7" transform="translate(428.607 581.214)"/>
      </g>
    </g>
    <g id="Group_645" data-name="Group 645" transform="translate(1214 51)">
      <g id="Group_640-6" data-name="Group 640">
        <rect id="Rectangle_54-6" data-name="Rectangle 54" class="cls-2" width="5.4" height="24" rx="2.7" transform="translate(443.076 591.09) rotate(90)"/>
        <rect id="Rectangle_55-6" data-name="Rectangle 55" class="cls-2" width="5.4" height="24" rx="2.7" transform="translate(428.607 581.214)"/>
      </g>
    </g>
    <g id="Group_642" data-name="Group 642" transform="translate(-155 364)">
      <g id="Group_640-7" data-name="Group 640">
        <rect id="Rectangle_54-7" data-name="Rectangle 54" class="cls-2" width="5.4" height="24" rx="2.7" transform="translate(443.076 591.09) rotate(90)"/>
        <rect id="Rectangle_55-7" data-name="Rectangle 55" class="cls-2" width="5.4" height="24" rx="2.7" transform="translate(428.607 581.214)"/>
      </g>
    </g>
    <rect id="Rectangle_38" data-name="Rectangle 38" class="cls-3" width="9" height="40" rx="4.5" transform="translate(200 644.369) rotate(90)"/>
    <rect id="Rectangle_39" data-name="Rectangle 39" class="cls-3" width="9" height="40" rx="4.5" transform="translate(175.5 627.516)"/>
    <circle id="Ellipse_27-2" data-name="Ellipse 27" class="cls-4" cx="7.5" cy="7.5" r="7.5" transform="translate(72 455)"/>
    <rect id="Rectangle_56" data-name="Rectangle 56" class="cls-2" width="5.4" height="24" rx="2.7" transform="translate(249.5 257.236) rotate(90)"/>
    <rect id="Rectangle_57" data-name="Rectangle 57" class="cls-2" width="5.4" height="24" rx="2.7" transform="translate(234.8 248.686)"/>
    <rect id="Rectangle_58" data-name="Rectangle 58" class="cls-3" width="9" height="40" rx="4.5" transform="translate(142 105.5) rotate(90)"/>
    <rect id="Rectangle_59" data-name="Rectangle 59" class="cls-3" width="9" height="42" rx="4.5" transform="translate(117.5 89)"/>
    <rect id="Rectangle_62" data-name="Rectangle 62" class="cls-2" width="5.4" height="24" rx="2.7" transform="translate(1261.225 111.3) rotate(90)"/>
    <rect id="Rectangle_63" data-name="Rectangle 63" class="cls-2" width="5.4" height="24" rx="2.7" transform="translate(1246.752 102)"/>
    <circle id="Ellipse_28" data-name="Ellipse 28" class="cls-1" cx="11.5" cy="11.5" r="11.5" transform="translate(148.431 867)"/>
    <circle id="Ellipse_120" data-name="Ellipse 120" class="cls-1" cx="11.5" cy="11.5" r="11.5" transform="translate(1752.431 530)"/>
    <circle id="Ellipse_107" data-name="Ellipse 107" class="cls-1" cx="11.5" cy="11.5" r="11.5" transform="translate(837.998 292)"/>
    <circle id="Ellipse_112" data-name="Ellipse 112" class="cls-1" cx="11.5" cy="11.5" r="11.5" transform="translate(1337.998 1036)"/>
    <circle id="Ellipse_111" data-name="Ellipse 111" class="cls-1" cx="11.5" cy="11.5" r="11.5" transform="translate(661.513 544)"/>
    <circle id="Ellipse_121" data-name="Ellipse 121" class="cls-1" cx="11.5" cy="11.5" r="11.5" transform="translate(299.513 470)"/>
    <circle id="Ellipse_109" data-name="Ellipse 109" class="cls-1" cx="11.5" cy="11.5" r="11.5" transform="matrix(-0.208, 0.978, -0.978, -0.208, 1112.914, 680.943)"/>
    <circle id="Ellipse_30" data-name="Ellipse 30" class="cls-1" cx="11.5" cy="11.5" r="11.5" transform="translate(1918.57 84)"/>
    <rect id="Rectangle_72" data-name="Rectangle 72" class="cls-2" width="5.4" height="24" rx="2.7" transform="translate(1558.328 173.3) rotate(90)"/>
    <rect id="Rectangle_73" data-name="Rectangle 73" class="cls-2" width="5.4" height="24" rx="2.7" transform="translate(1543.628 164)"/>
    <circle id="Ellipse_57" data-name="Ellipse 57" class="cls-4" cx="7.5" cy="7.5" r="7.5" transform="translate(1487.57 461)"/>
    <circle id="Ellipse_118" data-name="Ellipse 118" class="cls-4" cx="7.5" cy="7.5" r="7.5" transform="translate(1403.57 713)"/>
    <circle id="Ellipse_123" data-name="Ellipse 123" class="cls-4" cx="7.5" cy="7.5" r="7.5" transform="translate(1637.57 799)"/>
    <circle id="Ellipse_116" data-name="Ellipse 116" class="cls-4" cx="7.5" cy="7.5" r="7.5" transform="translate(1976.57 509)"/>
    <rect id="Rectangle_146" data-name="Rectangle 146" class="cls-2" width="5.4" height="24" rx="2.7" transform="translate(1415.853 315.763) rotate(90)"/>
    <rect id="Rectangle_330" data-name="Rectangle 330" class="cls-2" width="5.4" height="24" rx="2.7" transform="translate(933.202 613.347) rotate(90)"/>
    <rect id="Rectangle_147" data-name="Rectangle 147" class="cls-2" width="5.4" height="24" rx="2.7" transform="translate(1401.789 306.981)"/>
    <rect id="Rectangle_331" data-name="Rectangle 331" class="cls-2" width="5.4" height="24" rx="2.7" transform="translate(918.474 603.382)"/>
    <circle id="Ellipse_58" data-name="Ellipse 58" class="cls-1" cx="7.5" cy="7.5" r="7.5" transform="translate(1547.57 353)"/>
    <circle id="Ellipse_124" data-name="Ellipse 124" class="cls-1" cx="7.5" cy="7.5" r="7.5" transform="translate(1480.57 854)"/>
    <circle id="Ellipse_119" data-name="Ellipse 119" class="cls-1" cx="7.5" cy="7.5" r="7.5" transform="translate(719.57 879)"/>
    <circle id="Ellipse_117" data-name="Ellipse 117" class="cls-1" cx="7.5" cy="7.5" r="7.5" transform="translate(876.57 1092)"/>
    <rect id="Rectangle_150" data-name="Rectangle 150" class="cls-3" width="9" height="40" rx="4.5" transform="translate(1081.514 43.5) rotate(90)"/>
    <rect id="Rectangle_151" data-name="Rectangle 151" class="cls-3" width="9" height="42" rx="4.5" transform="translate(1057.151 27)"/>
    <rect id="Rectangle_152" data-name="Rectangle 152" class="cls-2" width="5.4" height="24" rx="2.7" transform="translate(952.661 411.386) rotate(90)"/>
    <rect id="Rectangle_153" data-name="Rectangle 153" class="cls-2" width="5.4" height="24" rx="2.7" transform="translate(937.948 402.223)"/>
    <circle id="Ellipse_59" data-name="Ellipse 59" class="cls-4" cx="7.5" cy="7.5" r="7.5" transform="translate(1053.467 293)"/>
    <circle id="Ellipse_106" data-name="Ellipse 106" class="cls-4" cx="7.5" cy="7.5" r="7.5" transform="translate(726.649 122)"/>
    <circle id="Ellipse_110" data-name="Ellipse 110" class="cls-4" cx="7.5" cy="7.5" r="7.5" transform="translate(661.892 363)"/>
    <circle id="Ellipse_108" data-name="Ellipse 108" class="cls-4" cx="7.5" cy="7.5" r="7.5" transform="matrix(-0.208, 0.978, -0.978, -0.208, 1261.486, 593.004)"/>
    <circle id="Ellipse_113" data-name="Ellipse 113" class="cls-4" cx="7.5" cy="7.5" r="7.5" transform="matrix(-0.208, 0.978, -0.978, -0.208, 867.486, 742.004)"/>
    <circle id="Ellipse_60" data-name="Ellipse 60" class="cls-4" cx="12" cy="12" r="12" transform="translate(410.984 348)"/>
    <circle id="Ellipse_115" data-name="Ellipse 115" class="cls-4" cx="12" cy="12" r="12" transform="translate(474.984 1024)"/>
    <circle id="Ellipse_62" data-name="Ellipse 62" class="cls-4" cx="12" cy="12" r="12" transform="translate(625.506 689)"/>
    <circle id="Ellipse_63" data-name="Ellipse 63" class="cls-4" cx="12" cy="12" r="12" transform="translate(1403.57 406)"/>
    <circle id="Ellipse_122" data-name="Ellipse 122" class="cls-4" cx="12" cy="12" r="12" transform="translate(1657.57 1000)"/>
    <circle id="Ellipse_114" data-name="Ellipse 114" class="cls-4" cx="12" cy="12" r="12" transform="translate(1894.57 260)"/>
    <g id="Group_639" data-name="Group 639" transform="translate(757 829)">
      <rect id="Rectangle_349" data-name="Rectangle 349" class="cls-3" width="9" height="40" rx="4.5" transform="translate(1081.514 74.5) rotate(90)"/>
      <rect id="Rectangle_350" data-name="Rectangle 350" class="cls-3" width="9" height="42" rx="4.5" transform="translate(1057.15 58)"/>
    </g>
    <g id="Group_648" data-name="Group 648" transform="translate(657 184)">
      <rect id="Rectangle_349-2" data-name="Rectangle 349" class="cls-3" width="9" height="40" rx="4.5" transform="translate(1081.514 74.5) rotate(90)"/>
      <rect id="Rectangle_350-2" data-name="Rectangle 350" class="cls-3" width="9" height="42" rx="4.5" transform="translate(1057.15 58)"/>
    </g>
    <g id="Group_643" data-name="Group 643" transform="translate(-50 811)">
      <rect id="Rectangle_349-3" data-name="Rectangle 349" class="cls-3" width="9" height="40" rx="4.5" transform="translate(1081.514 74.5) rotate(90)"/>
      <rect id="Rectangle_350-3" data-name="Rectangle 350" class="cls-3" width="9" height="42" rx="4.5" transform="translate(1057.15 58)"/>
    </g>
  </g>
</svg>
