<svg xmlns="http://www.w3.org/2000/svg" width="487.403" height="476.027" viewBox="0 0 487.403 476.027">
  <g id="raketlichtblauwdonkerblauw" transform="translate(3.837 3.535)">
    <path id="Path_231" data-name="Path 231" d="M.773,2.5H79.507l-9.3,31.576a195.91,195.91,0,0,1-29.916,2.562A233.707,233.707,0,0,1,8.727,34.076Z" transform="translate(91.171 316.209) rotate(47)" fill="#92ddf5" stroke="#404040" stroke-width="5"/>
    <path id="Path_228" data-name="Path 228" d="M129,54.03c31.615,45.624,60.013,106.709,60.013,182.437,0,78.771-16.1,148.281-40.748,189.835-14.87,25.071-89.958,25.227-104.992.046C18.706,385.2,2.5,315.493,2.5,236.468c0-75.662,28.431-136.889,60.057-182.5S97.388,8.406,129,54.03Z" transform="translate(365.596 -15.324) rotate(47)" fill="#8398b0" stroke="#404040" stroke-width="5"/>
    <path id="Path_229" data-name="Path 229" d="M790.809,722.472,801.235,750.5s-1.6,32.182-17.353,47.474-43.523,19.5-43.523,19.5-3.234-41.39,9.378-65.142S790.809,722.472,790.809,722.472Z" transform="translate(93.196 -813.395) rotate(47)" fill="#92ddf5" stroke="#404040" stroke-width="5"/>
    <path id="Path_232" data-name="Path 232" d="M750.413,722.472,739.988,750.5s1.6,32.182,17.353,47.474,43.523,19.5,43.523,19.5,3.234-41.39-9.378-65.142S750.413,722.472,750.413,722.472Z" transform="translate(222.404 -674.834) rotate(47)" fill="#92ddf5" stroke="#404040" stroke-width="5"/>
    <g id="Ellipse_83" data-name="Ellipse 83" transform="translate(298.464 129.336) rotate(47)" fill="#c6d9eb" stroke="#404040" stroke-width="5">
      <circle cx="36.087" cy="36.087" r="36.087" stroke="none"/>
      <circle cx="36.087" cy="36.087" r="33.587" fill="none"/>
    </g>
    <path id="Intersection_11" data-name="Intersection 11" d="M0,66.332a377.65,377.65,0,0,1,20.025-32.15c31.626-45.609,34.831-45.564,66.446.061,6.9,9.952,13.638,20.637,19.967,32.052-12.687,8.97-31.83,14.684-53.245,14.684C31.806,80.979,12.687,75.282,0,66.332Z" transform="translate(380.13 29.275) rotate(47)" fill="#92ddf5" stroke="#404040" stroke-width="5"/>
    <path id="Path_234" data-name="Path 234" d="M25.255-.361c6.421,0,12.735,3.138,17.454,7.3,5.217,4.6,8.986,11.02,8.986,18.917,0,14.436-11.856,26.4-26.03,26.4A25.9,25.9,0,0,1,0,26.12C0,11.684,11.081-.361,25.255-.361Z" transform="translate(303.985 143.619) rotate(47)" fill="rgba(255,255,255,0.33)"/>
    <path id="Path_235" data-name="Path 235" d="M2.087.057,60.585,0a35.712,35.712,0,0,1,2.17,10.495A35.513,35.513,0,0,1,61.21,20.8L1.495,20.67A34.989,34.989,0,0,1,.009,10.435,37.72,37.72,0,0,1,2.087.057Z" transform="translate(264.778 170.696) rotate(-3)" fill="rgba(255,255,255,0.5)"/>
    <path id="Path_236" data-name="Path 236" d="M68.644,71.537S53.508,81.2,42.767,81.2C20.528,81.2,0,62.943,0,40.7A40.318,40.318,0,0,1,15.073,9.291c1.988-1.107,4.956-2.184,10.854,2.448,6.339,4.979,13.318,14.668,20.007,24.25C57.809,53,68.644,71.537,68.644,71.537Z" transform="translate(408.22 50.494) rotate(47)" fill="rgba(255,255,255,0.33)"/>
    <path id="Path_237" data-name="Path 237" d="M0,0,78.463.3l-1.834,9.713-2.9,10.735-63.065.4S6.428,14.586,3.788,9.294A60.567,60.567,0,0,1,0,0Z" transform="translate(338.673 90.972) rotate(-3)" fill="rgba(255,255,255,0.5)"/>
    <path id="Path_238" data-name="Path 238" d="M2.457,3.671A188.041,188.041,0,0,0,34.7,6.746,168.772,168.772,0,0,0,65.907,3.673L64.152,9.6A149.96,149.96,0,0,1,34.7,13.084c-14.466,0-30.769-3.464-30.769-3.464Z" transform="translate(81.908 332.441) rotate(47)" fill="rgba(64,64,64,0.1)"/>
    <path id="Path_239" data-name="Path 239" d="M807.245,549.326s.284,13.755,1.038,26.2,2,23.641,2,23.641,46.695,10.8,91.767,10.789,88.522-10.845,88.522-10.845,1.284-11.811,2.039-24.25.923-25.631.923-25.631-44.911,9.467-91.484,9.49S807.245,549.326,807.245,549.326Z" transform="translate(38.921 -810.922) rotate(47)" fill="#92ddf5" stroke="#404040" stroke-width="5"/>
    <rect id="Rectangle_237" data-name="Rectangle 237" width="18.002" height="5.685" transform="translate(286.139 154.095) rotate(-3)" fill="rgba(255,255,255,0.33)"/>
    <rect id="Rectangle_238" data-name="Rectangle 238" width="18.002" height="5.685" transform="translate(379.543 70.88) rotate(-3)" fill="rgba(255,255,255,0.33)"/>
    <path id="Path_240" data-name="Path 240" d="M107.738,100.795c52.7-2.673,74.506-8.617,74.506-8.617s-.263,11.085-.922,22.528-1.93,22.713-1.93,22.713-57.634,13.826-106.36,9.461C14.951,146.88.916,91.644.916,91.644S55.039,103.468,107.738,100.795Z" transform="translate(254.232 94.271) rotate(47)" fill="rgba(255,255,255,0.33)"/>
    <path id="Path_241" data-name="Path 241" d="M748.254,722.472l-8.266,21.472s1.268,24.652,13.758,36.365,34.508,14.939,34.508,14.939,2.564-31.705-7.436-49.9S748.254,722.472,748.254,722.472Z" transform="translate(222.874 -670.164) rotate(47)" fill="rgba(255,255,255,0.33)"/>
    <path id="Path_230" data-name="Path 230" d="M779.891,722.523l9.638,25.523s-.937,24.084-13.427,35.8-34.744,12.934-34.744,12.934-3.834-32.623,6.166-50.817S779.891,722.523,779.891,722.523Z" transform="translate(97.498 -804.617) rotate(47)" fill="rgba(255,255,255,0.33)"/>
    <path id="Path_242" data-name="Path 242" d="M0,.014A80.3,80.3,0,0,1,8.6,5.568a51.036,51.036,0,0,1,6.559,6.058s4.414,9.514,4.4,26.2S15.1,78.369,15.1,78.369a79.221,79.221,0,0,1-7.832-3.324C3.481,73.151,0,71.064,0,71.064s4.422-22.108,4.422-39.87A109.943,109.943,0,0,0,0,.014Z" transform="translate(210.538 385.111) rotate(47)" fill="rgba(255,255,255,0.33)"/>
    <path id="Path_243" data-name="Path 243" d="M3.676,6.744l9.331-3.429,3.212,8.828S19.766,21.314,19.752,38s-7.332,27.622-7.332,27.622a47.437,47.437,0,0,1-5.9,8.144c-2.871,2.857-1.908-24.637-1.908-42.4S3.676,6.744,3.676,6.744Z" transform="translate(94.692 246.734) rotate(47)" fill="rgba(255,255,255,0.33)"/>
    <rect id="Rectangle_239" data-name="Rectangle 239" width="18.002" height="5.685" transform="translate(248.632 287.527) rotate(-3)" fill="rgba(255,255,255,0.33)"/>
    <rect id="Rectangle_240" data-name="Rectangle 240" width="18.002" height="5.685" transform="matrix(0.719, -0.695, 0.695, 0.719, 187.991, 418.658)" fill="rgba(255,255,255,0.33)"/>
    <rect id="Rectangle_241" data-name="Rectangle 241" width="18.002" height="5.685" transform="matrix(0.719, -0.695, 0.695, 0.719, 65.221, 287.002)" fill="rgba(255,255,255,0.33)"/>
    <path id="Path_244" data-name="Path 244" d="M1045.1,496.135s-4.392,38.445-14,70.607S1009.96,619.4,1009.96,619.4s-6.253,18.863-46.681,20.9c-16.929.593-44.455-1.927-55.094-16.2s17.209-37.775,28.216-67.38,15.668-50.489,15.668-50.489a346.833,346.833,0,0,0,46.3-2.434c8.97-1.171,17.081-2.075,25.1-3.423C1035.277,498.388,1045.1,496.135,1045.1,496.135Z" transform="translate(-77.718 -780.487) rotate(47)" fill="rgba(255,255,255,0.33)"/>
    <path id="Path_245" data-name="Path 245" d="M960.486,438.327s25.5-.111,47.451-2.3,43.409-6.44,43.409-6.44.883-41.177-8.695-79.681S1013.02,275.4,1013.02,275.4a63.332,63.332,0,0,1-17.565,8.691c-10.737,3.456-25.4,4.808-25.4,4.808l-3.25,45.137s9.236.394,17.745,8.568a41.711,41.711,0,0,1,9.406,12.668c1.385,2.753,3.934,10.576,2.618,20.174-.505,3.686-3.75,14.554-10.123,19.976-3.319,2.824-4.709,4.679-10.71,7.363a44.214,44.214,0,0,1-13.146,3.156Z" transform="translate(-88.162 -774.678) rotate(47)" fill="rgba(255,255,255,0.33)"/>
    <path id="Path_246" data-name="Path 246" d="M960.2,452.171s24.226.153,46.925-2.088A430.962,430.962,0,0,0,1051,443.208s-.226,11.787-.943,23.12-1.925,22.211-1.925,22.211a408.165,408.165,0,0,1-44.152,7.421c-23.253,2.5-48.861,2.584-48.861,2.584s2.076-12.991,3.347-24.584S960.2,452.171,960.2,452.171Z" transform="translate(-81.52 -780.485) rotate(47)" fill="rgba(255,255,255,0.33)"/>
    <path id="Path_247" data-name="Path 247" d="M928.992,664.331a234.941,234.941,0,0,0,30.562,2.3,187.155,187.155,0,0,0,27.228-2.3l4.735-15.913a130.334,130.334,0,0,1-26.446,9.906C949.456,662.383,928.992,664.331,928.992,664.331Z" transform="translate(-72.697 -786.836) rotate(47)" fill="rgba(255,255,255,0.33)"/>
  </g>
</svg>
