<svg xmlns="http://www.w3.org/2000/svg" width="258.541" height="458.629" viewBox="0 0 258.541 458.629">
  <g id="raketlichtblauwdonkerblauw" transform="translate(2.543 2.5)">
    <path id="Path_195" data-name="Path 195" d="M.773,2.5H79.507l-9.3,31.576a195.91,195.91,0,0,1-29.916,2.562A233.707,233.707,0,0,1,8.727,34.076Z" transform="translate(85.091 406.775)" fill="#92ddf5" stroke="#404040" stroke-width="5"/>
    <path id="Path_188" data-name="Path 188" d="M129,54.03c31.615,45.624,60.013,106.709,60.013,182.437,0,78.771-16.1,148.281-40.748,189.835-14.87,25.071-89.958,25.227-104.992.046C18.706,385.2,2.5,315.493,2.5,236.468c0-75.662,28.431-136.889,60.057-182.5S97.388,8.406,129,54.03Z" transform="translate(29.117 -19.787)" fill="#8398b0" stroke="#404040" stroke-width="5"/>
    <path id="Path_189" data-name="Path 189" d="M790.809,722.472,801.235,750.5s-1.6,32.182-17.353,47.474-43.523,19.5-43.523,19.5-3.234-41.39,9.378-65.142S790.809,722.472,790.809,722.472Z" transform="translate(-739.988 -364.225)" fill="#92ddf5" stroke="#404040" stroke-width="5"/>
    <path id="Path_198" data-name="Path 198" d="M750.413,722.472,739.988,750.5s1.6,32.182,17.353,47.474,43.523,19.5,43.523,19.5,3.234-41.39-9.378-65.142S750.413,722.472,750.413,722.472Z" transform="translate(-547.78 -364.664)" fill="#92ddf5" stroke="#404040" stroke-width="5"/>
    <g id="Ellipse_80" data-name="Ellipse 80" transform="translate(89.593 128.685)" fill="#c6d9eb" stroke="#404040" stroke-width="5">
      <circle cx="36.087" cy="36.087" r="36.087" stroke="none"/>
      <circle cx="36.087" cy="36.087" r="33.587" fill="none"/>
    </g>
    <path id="Path_199" data-name="Path 199" d="M25.255-.361c6.421,0,12.735,3.138,17.454,7.3,5.217,4.6,8.986,11.02,8.986,18.917,0,14.436-11.856,26.4-26.03,26.4A25.9,25.9,0,0,1,0,26.12C0,11.684,11.081-.361,25.255-.361Z" transform="translate(103.784 134.705)" fill="rgba(255,255,255,0.33)"/>
    <path id="Intersection_9" data-name="Intersection 9" d="M0,66.332a377.65,377.65,0,0,1,20.025-32.15c31.626-45.609,34.831-45.564,66.446.061,6.9,9.952,13.638,20.637,19.967,32.052-12.687,8.97-31.83,14.684-53.245,14.684C31.806,80.979,12.687,75.282,0,66.332Z" transform="translate(71.591 0.756)" fill="#92ddf5" stroke="#404040" stroke-width="5"/>
    <path id="Path_200" data-name="Path 200" d="M2.087.057,60.75.023a40.992,40.992,0,0,1,1.859,10.445A31.8,31.8,0,0,1,60.68,20.976L2.092,20.5A30.115,30.115,0,0,1,.43,10.481,48.8,48.8,0,0,1,2.087.057Z" transform="translate(96.931 181.233) rotate(-48)" fill="rgba(255,255,255,0.5)"/>
    <path id="Path_207" data-name="Path 207" d="M68.644,71.537S53.508,81.2,42.767,81.2C20.528,81.2,0,62.943,0,40.7A40.318,40.318,0,0,1,15.073,9.291c1.988-1.107,4.956-2.184,10.854,2.448,6.339,4.979,13.318,14.668,20.007,24.25C57.809,53,68.644,71.537,68.644,71.537Z" transform="translate(106.562 -5.207)" fill="rgba(255,255,255,0.33)"/>
    <path id="Path_205" data-name="Path 205" d="M0,0,78.463.3l-1.834,9.713-2.9,10.735-63.065.4S6.428,14.586,3.788,9.294A60.567,60.567,0,0,1,0,0Z" transform="translate(87.293 71.992) rotate(-48)" fill="rgba(255,255,255,0.5)"/>
    <path id="Path_201" data-name="Path 201" d="M2.457,3.671A188.041,188.041,0,0,0,34.7,6.746,168.772,168.772,0,0,0,65.907,3.673L64.152,9.6A149.96,149.96,0,0,1,34.7,13.084c-14.466,0-30.769-3.464-30.769-3.464Z" transform="translate(90.907 425.209)" fill="rgba(64,64,64,0.1)"/>
    <path id="Path_203" data-name="Path 203" d="M960.486,438.327s25.5-.111,47.451-2.3,42.77-6.39,42.77-6.39,1.085-40.949-8.492-79.453-29.682-74.693-29.682-74.693a68.149,68.149,0,0,1-17.256,8.115c-10.737,3.456-25.22,5.288-25.22,5.288l-3.25,45.137s9.236.394,17.745,8.568a41.711,41.711,0,0,1,9.406,12.668c1.385,2.753,3.934,10.576,2.618,20.174-.505,3.686-3.75,14.554-10.123,19.976-3.319,2.824-4.709,4.679-10.71,7.363a44.214,44.214,0,0,1-13.146,3.156Z" transform="translate(-835.045 -205.039)" fill="rgba(255,255,255,0.33)"/>
    <path id="Path_190" data-name="Path 190" d="M807.245,549.326s.284,13.755,1.038,26.2,2,23.641,2,23.641,46.695,10.8,91.767,10.789,88.522-10.845,88.522-10.845,1.284-11.811,2.039-24.25.74-25.65.74-25.65-44.729,9.486-91.3,9.509S807.245,549.326,807.245,549.326Z" transform="translate(-775.298 -324.297)" fill="#92ddf5" stroke="#404040" stroke-width="5"/>
    <rect id="Rectangle_228" data-name="Rectangle 228" width="18.002" height="5.685" transform="translate(103.137 33.682) rotate(-48)" fill="rgba(255,255,255,0.33)"/>
    <rect id="Rectangle_231" data-name="Rectangle 231" width="18.002" height="5.685" transform="translate(97.541 154.47) rotate(-48)" fill="rgba(255,255,255,0.33)"/>
    <path id="Path_191" data-name="Path 191" d="M107.83,100.879c52.7-2.673,74.414-8.7,74.414-8.7s-.263,11.085-.922,22.528-1.93,22.713-1.93,22.713-57.634,13.826-106.36,9.461C14.951,146.88.981,92.42.981,92.42S55.131,103.552,107.83,100.879Z" transform="translate(33.572 135.621)" fill="rgba(255,255,255,0.33)"/>
    <path id="Path_202" data-name="Path 202" d="M748.254,722.472l-8.266,21.472s1.268,24.652,13.758,36.365,34.508,14.939,34.508,14.939,2.564-31.705-7.436-49.9S748.254,722.472,748.254,722.472Z" transform="translate(-544.164 -361.1)" fill="rgba(255,255,255,0.33)"/>
    <path id="Path_192" data-name="Path 192" d="M779.891,722.523l9.638,25.523s-.937,24.084-13.427,35.8-34.744,12.934-34.744,12.934-3.834-32.623,6.166-50.817S779.891,722.523,779.891,722.523Z" transform="translate(-730.376 -361.207)" fill="rgba(255,255,255,0.33)"/>
    <path id="Path_206" data-name="Path 206" d="M0,.014A80.3,80.3,0,0,1,8.6,5.568a51.036,51.036,0,0,1,6.559,6.058s4.414,9.514,4.4,26.2S15.1,78.369,15.1,78.369a79.221,79.221,0,0,1-7.832-3.324C3.481,73.151,0,71.064,0,71.064s4.422-22.108,4.422-39.87A109.943,109.943,0,0,0,0,.014Z" transform="translate(217.761 366.234)" fill="rgba(255,255,255,0.33)"/>
    <path id="Path_193" data-name="Path 193" d="M3.693,6.932l9.1-3.125,3.021,8.309s3.955,9.107,3.941,25.707S12.421,65.3,12.421,65.3a47.2,47.2,0,0,1-5.9,8.1c-2.871,2.843-1.908-24.51-1.908-42.181S3.693,6.932,3.693,6.932Z" transform="translate(36.701 357.447)" fill="rgba(255,255,255,0.33)"/>
    <rect id="Rectangle_230" data-name="Rectangle 230" width="18.002" height="5.685" transform="translate(227.594 406.884) rotate(-90)" fill="rgba(255,255,255,0.33)"/>
    <rect id="Rectangle_227" data-name="Rectangle 227" width="18.002" height="5.685" transform="matrix(-0.017, -1, 1, -0.017, 45.982, 402.277)" fill="rgba(255,255,255,0.33)"/>
    <path id="Path_194" data-name="Path 194" d="M1045.1,496.135s-4.392,38.445-14,70.607S1009.96,619.4,1009.96,619.4s-6.253,18.863-46.681,20.9c-16.929.593-44.455-1.927-55.094-16.2s17.209-37.775,28.216-67.38,15.668-50.489,15.668-50.489a346.833,346.833,0,0,0,46.3-2.434c8.97-1.171,17.081-2.075,25.1-3.423C1035.277,498.388,1045.1,496.135,1045.1,496.135Z" transform="translate(-832.515 -218.358)" fill="rgba(255,255,255,0.33)"/>
    <path id="Path_197" data-name="Path 197" d="M960.2,452.171s24.226.153,46.925-2.088a384.891,384.891,0,0,0,43.522-7.08s-.256,12-.974,23.328-1.866,21.955-1.866,21.955a389.333,389.333,0,0,1-43.96,7.492c-23.253,2.5-48.731,2.764-48.731,2.764s2.076-12.991,3.347-24.584S960.2,452.171,960.2,452.171Z" transform="translate(-834.875 -215.198)" fill="rgba(255,255,255,0.33)"/>
    <rect id="Rectangle_229" data-name="Rectangle 229" width="18.002" height="5.685" transform="translate(167.63 274.113) rotate(-48)" fill="rgba(255,255,255,0.33)"/>
    <path id="Path_204" data-name="Path 204" d="M928.764,664.813a244.162,244.162,0,0,0,30.736,2.248,181.573,181.573,0,0,0,26.794-2.246l4.672-15.75a142.407,142.407,0,0,1-25.895,9.259C949.456,662.383,928.764,664.813,928.764,664.813Z" transform="translate(-832.946 -226.211)" fill="rgba(255,255,255,0.33)"/>
  </g>
</svg>
