<svg xmlns="http://www.w3.org/2000/svg" width="1518.828" height="686" viewBox="0 0 1518.828 686">
  <g id="ster_groot" data-name="ster groot" transform="translate(-72 -27)">
    <circle id="Ellipse_27" data-name="Ellipse 27" cx="7.5" cy="7.5" r="7.5" transform="translate(435.244 88)" fill="#bf6663"/>
    <rect id="Rectangle_54" data-name="Rectangle 54" width="5.4" height="24" rx="2.7" transform="translate(443.076 591.09) rotate(90)" fill="#fbef85"/>
    <rect id="Rectangle_55" data-name="Rectangle 55" width="5.4" height="24" rx="2.7" transform="translate(428.607 581.214)" fill="#fbef85"/>
    <rect id="Rectangle_38" data-name="Rectangle 38" width="9" height="40" rx="4.5" transform="translate(200 644.369) rotate(90)" fill="#f3e565"/>
    <rect id="Rectangle_39" data-name="Rectangle 39" width="9" height="40" rx="4.5" transform="translate(175.5 627.516)" fill="#f3e565"/>
    <circle id="Ellipse_27-2" data-name="Ellipse 27" cx="7.5" cy="7.5" r="7.5" transform="translate(72 455)" fill="#f6d9cf"/>
    <rect id="Rectangle_56" data-name="Rectangle 56" width="5.4" height="24" rx="2.7" transform="translate(249.5 257.236) rotate(90)" fill="#fbef85"/>
    <rect id="Rectangle_57" data-name="Rectangle 57" width="5.4" height="24" rx="2.7" transform="translate(234.8 248.686)" fill="#fbef85"/>
    <rect id="Rectangle_58" data-name="Rectangle 58" width="9" height="40" rx="4.5" transform="translate(112 88.5) rotate(90)" fill="#f3e565"/>
    <rect id="Rectangle_59" data-name="Rectangle 59" width="9" height="42" rx="4.5" transform="translate(87.5 72)" fill="#f3e565"/>
    <rect id="Rectangle_62" data-name="Rectangle 62" width="5.4" height="24" rx="2.7" transform="translate(1261.225 111.3) rotate(90)" fill="#fbef85"/>
    <rect id="Rectangle_63" data-name="Rectangle 63" width="5.4" height="24" rx="2.7" transform="translate(1246.752 102)" fill="#fbef85"/>
    <circle id="Ellipse_28" data-name="Ellipse 28" cx="11.5" cy="11.5" r="11.5" transform="translate(1215.431 397)" fill="#bf6663"/>
    <circle id="Ellipse_107" data-name="Ellipse 107" cx="11.5" cy="11.5" r="11.5" transform="translate(837.998 292)" fill="#bf6663"/>
    <circle id="Ellipse_111" data-name="Ellipse 111" cx="11.5" cy="11.5" r="11.5" transform="translate(626.513 553)" fill="#bf6663"/>
    <circle id="Ellipse_109" data-name="Ellipse 109" cx="11.5" cy="11.5" r="11.5" transform="matrix(-0.208, 0.978, -0.978, -0.208, 1112.914, 680.943)" fill="#bf6663"/>
    <circle id="Ellipse_30" data-name="Ellipse 30" cx="11.5" cy="11.5" r="11.5" transform="translate(1391.57 75)" fill="#bf6663"/>
    <rect id="Rectangle_72" data-name="Rectangle 72" width="5.4" height="24" rx="2.7" transform="translate(1558.328 173.3) rotate(90)" fill="#fbef85"/>
    <rect id="Rectangle_73" data-name="Rectangle 73" width="5.4" height="24" rx="2.7" transform="translate(1543.628 164)" fill="#fbef85"/>
    <rect id="Rectangle_144" data-name="Rectangle 144" width="9" height="40" rx="4.5" transform="translate(1590.828 677.317) rotate(90)" fill="#f3e565"/>
    <rect id="Rectangle_145" data-name="Rectangle 145" width="9" height="40" rx="4.5" transform="translate(1566.328 660.242)" fill="#f3e565"/>
    <circle id="Ellipse_57" data-name="Ellipse 57" cx="7.5" cy="7.5" r="7.5" transform="translate(1487.57 461)" fill="#f6d9cf"/>
    <rect id="Rectangle_146" data-name="Rectangle 146" width="5.4" height="24" rx="2.7" transform="translate(1415.853 315.763) rotate(90)" fill="#fbef85"/>
    <rect id="Rectangle_330" data-name="Rectangle 330" width="5.4" height="24" rx="2.7" transform="translate(933.202 613.347) rotate(90)" fill="#fbef85"/>
    <rect id="Rectangle_147" data-name="Rectangle 147" width="5.4" height="24" rx="2.7" transform="translate(1401.789 306.981)" fill="#fbef85"/>
    <rect id="Rectangle_331" data-name="Rectangle 331" width="5.4" height="24" rx="2.7" transform="translate(918.474 603.382)" fill="#fbef85"/>
    <circle id="Ellipse_58" data-name="Ellipse 58" cx="7.5" cy="7.5" r="7.5" transform="translate(1547.57 353)" fill="#bf6663"/>
    <rect id="Rectangle_150" data-name="Rectangle 150" width="9" height="40" rx="4.5" transform="translate(1081.514 43.5) rotate(90)" fill="#f3e565"/>
    <rect id="Rectangle_151" data-name="Rectangle 151" width="9" height="42" rx="4.5" transform="translate(1057.151 27)" fill="#f3e565"/>
    <rect id="Rectangle_152" data-name="Rectangle 152" width="5.4" height="24" rx="2.7" transform="translate(952.661 411.386) rotate(90)" fill="#fbef85"/>
    <rect id="Rectangle_153" data-name="Rectangle 153" width="5.4" height="24" rx="2.7" transform="translate(937.948 402.223)" fill="#fbef85"/>
    <circle id="Ellipse_59" data-name="Ellipse 59" cx="7.5" cy="7.5" r="7.5" transform="translate(1053.467 293)" fill="#f6d9cf"/>
    <circle id="Ellipse_106" data-name="Ellipse 106" cx="7.5" cy="7.5" r="7.5" transform="translate(726.649 122)" fill="#f6d9cf"/>
    <circle id="Ellipse_110" data-name="Ellipse 110" cx="7.5" cy="7.5" r="7.5" transform="translate(661.892 363)" fill="#f6d9cf"/>
    <circle id="Ellipse_108" data-name="Ellipse 108" cx="7.5" cy="7.5" r="7.5" transform="matrix(-0.208, 0.978, -0.978, -0.208, 1261.486, 593.004)" fill="#f6d9cf"/>
    <circle id="Ellipse_60" data-name="Ellipse 60" cx="12" cy="12" r="12" transform="translate(410.984 348)" fill="#f6d9cf"/>
    <circle id="Ellipse_62" data-name="Ellipse 62" cx="12" cy="12" r="12" transform="translate(625.506 689)" fill="#f6d9cf"/>
    <circle id="Ellipse_63" data-name="Ellipse 63" cx="12" cy="12" r="12" transform="translate(1403.57 406)" fill="#f6d9cf"/>
  </g>
</svg>
